<svg width="300" height="289" viewBox="0 0 300 289" fill="none" xmlns="http://www.w3.org/2000/svg">
<path d="M272.853 61.7756H224.692V111.978H272.853V61.7756Z" fill="#E0E0E0"/>
<path d="M269.588 61.7756H221.433V111.978H269.588V61.7756Z" fill="#FAFAFA"/>
<path d="M269.607 111.992H221.42V61.7625H269.607V111.992ZM221.446 111.959H269.575V61.7887H221.446V111.959Z" fill="#E0E0E0"/>
<path d="M263.115 68.5229H227.906V105.225H263.115V68.5229Z" fill="white"/>
<path d="M227.88 105.473C227.628 105.84 227.336 106.178 227.009 106.481C226.446 107.077 225.661 107.882 224.771 108.752C223.881 109.622 223.069 110.401 222.474 110.951C222.168 111.274 221.826 111.559 221.453 111.802C221.701 111.434 221.991 111.095 222.317 110.794C222.88 110.198 223.671 109.393 224.562 108.523C225.452 107.653 226.263 106.867 226.865 106.317C227.168 105.996 227.508 105.712 227.88 105.473Z" fill="#E0E0E0"/>
<path d="M263.115 105.382C263.485 105.632 263.826 105.924 264.13 106.252C264.719 106.815 265.524 107.6 266.394 108.49C267.264 109.38 268.043 110.192 268.6 110.787C268.922 111.092 269.205 111.435 269.444 111.808C269.076 111.56 268.737 111.27 268.436 110.944C267.847 110.382 267.042 109.59 266.165 108.7C265.288 107.81 264.509 106.998 263.959 106.396C263.64 106.091 263.357 105.751 263.115 105.382V105.382Z" fill="#E0E0E0"/>
<path d="M263.017 68.6408C263.267 68.2721 263.559 67.9339 263.887 67.6329C264.45 67.0374 265.242 66.2324 266.126 65.362C267.009 64.4915 267.827 63.7128 268.429 63.163C268.73 62.8372 269.071 62.5512 269.444 62.3122C269.198 62.6823 268.908 63.0208 268.58 63.3201C268.017 63.9091 267.225 64.7206 266.335 65.591C265.445 66.4614 264.634 67.2468 264.031 67.7965C263.731 68.12 263.39 68.4037 263.017 68.6408V68.6408Z" fill="#E0E0E0"/>
<path d="M227.808 68.7127C227.44 68.4607 227.102 68.1688 226.8 67.8423C226.204 67.2795 225.406 66.4876 224.529 65.6041C223.652 64.7206 222.88 63.9025 222.33 63.307C222.007 63.0014 221.721 62.6587 221.479 62.286C221.847 62.5342 222.185 62.8241 222.487 63.1499C223.082 63.7127 223.887 64.5046 224.758 65.3947C225.628 66.2847 226.414 67.0963 226.963 67.6983C227.285 68.0008 227.569 68.3415 227.808 68.7127Z" fill="#E0E0E0"/>
<path d="M263.017 105.225C263.017 105.225 263.017 105.166 263.017 105.048C263.017 104.93 263.017 104.753 263.017 104.537C263.017 104.079 263.017 103.418 263.017 102.574C263.017 100.84 263.017 98.307 262.978 95.0936C262.978 88.6669 262.939 79.5112 262.912 68.5426L263.043 68.68H227.939L228.096 68.523C228.096 81.9981 228.096 94.5962 228.096 105.225L227.965 105.094L253.39 105.159L260.53 105.198H262.422H263.076C263.076 105.198 263.03 105.198 262.925 105.198H262.448H260.589L253.403 105.29L227.88 105.355H227.749V105.218C227.749 94.5897 227.749 81.9915 227.749 68.5164V68.3593H227.912H263.017H263.155V68.4968C263.155 79.4981 263.102 88.6866 263.089 95.1329C263.089 98.3332 263.056 100.853 263.05 102.587C263.05 103.431 263.05 104.086 263.05 104.55C263.05 104.76 263.05 104.923 263.05 105.048C263.05 105.172 263.024 105.231 263.017 105.225Z" fill="#E0E0E0"/>
<path d="M251.381 81.0033H239.634V92.7507H251.381V81.0033Z" fill="#EBEBEB"/>
<path d="M224.876 6.04913H180.144V52.6787H224.876V6.04913Z" fill="#E0E0E0"/>
<path d="M221.846 6.04913H177.114V52.6787H221.846V6.04913Z" fill="#FAFAFA"/>
<path d="M221.859 52.6918H177.101V6.03604H221.859V52.6918ZM177.127 52.6918H221.833V6.06222H177.127V52.6918Z" fill="#E0E0E0"/>
<path d="M215.838 12.3188H183.128V46.4156H215.838V12.3188Z" fill="white"/>
<path d="M183.128 46.6381C182.893 46.9786 182.62 47.2924 182.317 47.574C181.793 48.1303 181.06 48.8829 180.242 49.6813C179.424 50.4797 178.658 51.2193 178.102 51.7297C177.821 52.0286 177.504 52.2923 177.16 52.5151C177.386 52.1715 177.655 51.8572 177.958 51.5792C178.482 51.0295 179.221 50.2703 180.046 49.4719C180.87 48.6735 181.63 47.9339 182.186 47.4235C182.465 47.1222 182.782 46.8583 183.128 46.6381Z" fill="#E0E0E0"/>
<path d="M215.831 46.5531C216.174 46.7862 216.488 47.0586 216.767 47.3646C217.323 47.8816 218.076 48.6211 218.881 49.4392C219.686 50.2573 220.412 51.023 220.923 51.5792C221.222 51.8605 221.485 52.177 221.708 52.5217C221.369 52.2891 221.057 52.019 220.779 51.7167C220.223 51.1997 219.47 50.4601 218.665 49.6355C217.86 48.8109 217.127 48.0518 216.617 47.4955C216.315 47.2164 216.051 46.8997 215.831 46.5531V46.5531Z" fill="#E0E0E0"/>
<path d="M215.74 12.4104C215.973 12.0664 216.246 11.7502 216.551 11.468C217.075 10.9182 217.808 10.1591 218.626 9.36064C219.444 8.56221 220.209 7.82923 220.766 7.31876C221.045 7.01751 221.361 6.75355 221.708 6.53342C221.479 6.87337 221.211 7.18528 220.91 7.46274C220.386 8.01248 219.647 8.77164 218.822 9.57661C217.997 10.3816 217.238 11.1146 216.682 11.625C216.398 11.9214 216.082 12.1849 215.74 12.4104V12.4104Z" fill="#E0E0E0"/>
<path d="M183.037 12.4955C182.687 12.2666 182.362 12.0012 182.068 11.7036C181.518 11.18 180.759 10.447 179.961 9.62897C179.162 8.81091 178.429 8.0452 177.919 7.48892C177.62 7.20763 177.356 6.89119 177.134 6.54651C177.476 6.77257 177.788 7.04083 178.063 7.34494C178.619 7.8685 179.372 8.60803 180.177 9.43263C180.982 10.2572 181.715 11.0164 182.225 11.5727C182.532 11.8463 182.804 12.1562 183.037 12.4955V12.4955Z" fill="#E0E0E0"/>
<path d="M215.739 46.3894C215.739 46.3894 215.739 46.3305 215.739 46.2258C215.739 46.1211 215.739 45.951 215.739 45.7481C215.739 45.3227 215.739 44.7075 215.739 43.9091C215.739 42.2926 215.739 39.9431 215.707 36.9588C215.707 30.9902 215.667 22.4824 215.641 12.2991L215.766 12.4235H183.154L183.298 12.2795C183.298 24.7926 183.298 36.4942 183.298 46.3698L183.174 46.2455L206.787 46.3109H213.423H215.177H215.785C215.785 46.3109 215.739 46.3109 215.641 46.3109H215.203H213.475H206.865L183.174 46.3698H183.05V46.3894C183.05 36.5203 183.05 24.7926 183.05 12.2991V12.1552H183.2H215.811H215.942V12.2795C215.942 22.4955 215.89 31.0295 215.877 37.0243C215.877 39.9955 215.877 42.3319 215.844 43.9418C215.844 44.7271 215.844 45.3358 215.844 45.7612C215.844 45.9575 215.844 46.108 215.844 46.2193C215.844 46.3305 215.746 46.3894 215.739 46.3894Z" fill="#E0E0E0"/>
<path d="M204.935 23.9091H194.018V34.8253H204.935V23.9091Z" fill="#EBEBEB"/>
<path d="M29.771 280.526C28.6912 279.603 26.2893 276.677 28.1414 273.268C28.7959 272.018 30.2619 271.403 31.5708 270.853C32.9189 270.396 34.1883 269.734 35.3339 268.889C37.3692 267.155 37.9517 264.276 39.2606 261.959C40.8181 259.302 43.7174 257.312 46.7802 257.45C50.2946 257.607 53.22 260.473 54.542 263.745C55.864 267.018 55.9163 270.643 55.9425 274.171C55.9425 276.134 55.877 278.32 54.4438 279.642C53.1349 280.853 51.1323 280.872 49.3391 280.814L30.1637 280.225" fill="#F5F5F5"/>
<path d="M66.4529 227.79H16.0144L25.0982 281.992C25.2859 283.121 25.7902 284.173 26.5525 285.027C27.3148 285.881 28.3038 286.501 29.4045 286.815L29.5812 286.861C29.7317 286.9 29.8757 286.952 30.0327 286.978C30.369 287.047 30.7106 287.087 31.0537 287.096V287.149L31.2958 287.109H53.7958C54.2112 287.108 54.6254 287.067 55.0327 286.985C56.3451 286.781 57.5546 286.153 58.4764 285.197C59.3982 284.241 59.9816 283.009 60.1374 281.691L64.5157 244.387L64.712 242.901L66.4463 228.117L66.4529 227.79ZM56.9372 262.358H51.7605L52.284 246.651H58.2788L56.9372 262.358ZM58.7827 246.651H63.7369L61.8914 262.358H57.4411L58.7827 246.651ZM43.9791 279.78L43.6649 266.115H51.1322L50.6806 279.78H43.9791ZM35.9359 266.115H43.1806L43.4948 279.78H36.9961L35.9359 266.115ZM36.4922 279.78H30.4254C29.8429 276.088 29.1165 271.272 28.2853 266.115H35.4319L36.4922 279.78ZM35.6414 262.358L34.4175 246.651H42.7291L43.089 262.358H35.6414ZM43.5929 262.358L43.233 246.651H51.7801L51.2566 262.358H43.5929ZM43.1414 242.869L42.8076 228.327H52.3887L51.9045 242.888L43.1414 242.869ZM42.644 242.869H34.1623L32.9974 228.327H42.3102L42.644 242.869ZM33.6257 242.869H24.6139C24.2997 240.853 23.9922 238.942 23.7238 237.24C22.7814 231.35 22.4149 229.138 22.2317 228.307H32.4935L33.6257 242.869ZM33.9202 246.638L35.144 262.345H27.6898C27.4411 260.755 27.1859 259.138 26.9306 257.522C26.3482 253.811 25.7657 250.1 25.216 246.625L33.9202 246.638ZM27.1859 262.358H22.3168L19.699 246.651H24.7251C25.4778 251.481 26.3089 256.893 27.1859 262.358ZM27.7749 266.128C28.5209 270.859 29.2474 275.519 29.9149 279.793H25.2422L22.9516 266.128H27.7749ZM51.178 279.78L51.6361 266.115H56.6165L55.445 279.78H51.178ZM52.4084 242.855L52.8927 228.294H59.8429L58.5995 242.855H52.4084ZM21.7278 228.327C21.9306 229.38 22.8534 235.107 24.0838 242.888H19.0445L16.6034 228.327H21.7278ZM59.8233 279.812H55.8966L57.0615 266.147H61.4005L59.8233 279.812ZM64.1558 242.888H59.0772L60.3403 228.327H65.8835L64.1558 242.888Z" fill="#E0E0E0"/>
<path d="M262.598 224.282C259.228 222.548 255.268 222.319 251.531 222.94C249.522 223.268 247.428 223.87 246.06 225.382C244.692 226.893 244.437 229.544 246.008 230.84C246.937 231.605 248.24 231.723 249.45 231.71C252.376 231.677 255.622 231.16 257.958 232.921C259.267 233.929 260.183 235.598 261.774 236.088C263.364 236.579 265.098 235.65 265.923 234.243C266.682 232.778 266.851 231.077 266.394 229.492C266.205 228.39 265.764 227.346 265.106 226.442C264.448 225.539 263.589 224.799 262.598 224.282V224.282Z" fill="#EBEBEB"/>
<path d="M270.308 209.393C268.246 212.338 264.247 211.357 262.395 209.57C260.543 207.783 259.778 205.172 259.045 202.692C257.408 197.031 255.772 191.082 256.977 185.316C257.269 183.566 258.039 181.931 259.202 180.591C259.789 179.93 260.539 179.435 261.377 179.155C262.216 178.874 263.113 178.819 263.979 178.994C265.995 179.531 267.251 181.507 268.155 183.385C270.825 188.934 272.225 195.009 272.251 201.167C272.251 204.027 271.924 207.057 270.288 209.393" fill="#EBEBEB"/>
<path d="M275.962 213.615C273.724 210.997 273.298 207.07 274.293 203.798C275.288 200.526 277.533 197.646 280.124 195.342C283.17 192.629 286.716 190.538 290.563 189.184C292.052 188.577 293.656 188.304 295.262 188.385C296.061 188.433 296.836 188.675 297.52 189.09C298.204 189.506 298.777 190.081 299.188 190.768C300.288 192.862 299.234 195.401 298.096 197.476C296.085 201.139 293.792 204.64 291.237 207.947C289.182 210.598 286.826 213.183 283.691 214.406C280.556 215.63 277.31 215.46 275.648 213.294" fill="#EBEBEB"/>
<path d="M270.419 253.739C270.313 253.31 270.251 252.871 270.236 252.43C270.137 251.461 270.02 250.238 269.882 248.785C269.698 246.99 269.423 245.205 269.058 243.438C268.574 241.285 267.918 239.176 267.094 237.129C266.294 235.083 265.21 233.16 263.874 231.416C262.782 230 261.39 228.844 259.797 228.032C258.717 227.497 257.56 227.134 256.368 226.959C255.926 226.942 255.487 226.879 255.059 226.769C255.509 226.718 255.963 226.718 256.414 226.769C257.658 226.851 258.877 227.157 260.013 227.672C261.691 228.463 263.163 229.633 264.313 231.088C265.708 232.854 266.833 234.817 267.65 236.913C268.49 238.99 269.147 241.136 269.614 243.327C269.96 245.117 270.198 246.927 270.327 248.745C270.445 250.29 270.484 251.546 270.504 252.41C270.524 252.855 270.495 253.3 270.419 253.739V253.739Z" fill="#E0E0E0"/>
<path d="M270.196 250.938C270.159 250.733 270.145 250.524 270.157 250.316C270.157 249.852 270.157 249.263 270.157 248.543C270.157 247.005 270.157 244.78 270.079 242.031C269.941 236.533 269.47 230.617 268.554 222.273C267.69 214.42 266.525 205.303 265.281 199.367C265.02 198.019 264.751 196.802 264.503 195.742C264.254 194.681 264.064 193.778 263.848 193.013C263.632 192.247 263.541 191.743 263.436 191.291C263.373 191.092 263.336 190.885 263.325 190.676C263.418 190.862 263.491 191.057 263.541 191.259C263.678 191.704 263.848 192.266 264.058 192.96C264.267 193.654 264.516 194.609 264.784 195.67C265.052 196.73 265.353 197.941 265.641 199.289C267.178 206.307 268.336 213.403 269.11 220.545C270.026 228.903 270.419 236.514 270.478 242.024C270.51 244.78 270.478 247.011 270.38 248.569C270.334 249.289 270.301 249.878 270.268 250.342C270.269 250.543 270.244 250.743 270.196 250.938V250.938Z" fill="#E0E0E0"/>
<path d="M270.157 236.259C270.107 235.642 270.107 235.023 270.157 234.406C270.229 233.215 270.393 231.494 270.726 229.387C271.139 226.923 271.692 224.484 272.382 222.083C273.178 219.125 274.2 216.233 275.438 213.431C277.558 208.269 280.598 203.534 284.411 199.459C285.072 198.76 285.779 198.104 286.525 197.496C286.852 197.221 287.133 196.946 287.428 196.73L288.246 196.167C288.742 195.798 289.262 195.463 289.804 195.166C289.895 195.29 287.598 196.638 284.699 199.747C281.007 203.856 278.046 208.566 275.942 213.673C274.731 216.458 273.705 219.32 272.873 222.24C272.172 224.622 271.591 227.038 271.132 229.478C270.753 231.56 270.53 233.261 270.399 234.439C270.366 235.051 270.285 235.659 270.157 236.259V236.259Z" fill="#E0E0E0"/>
<path d="M284.345 262.149L282.873 282.299H256.989L255.517 262.149H284.345Z" fill="#E0E0E0"/>
<path d="M286.846 254.21H252.428V262.155H286.846V254.21Z" fill="#E0E0E0"/>
<path d="M286.845 281.533V283.732H285.229H252.997V281.533H286.845Z" fill="#EBEBEB"/>
<path d="M283.645 287.607L285.229 283.732H254.228L256.08 287.607H283.645Z" fill="#E0E0E0"/>
<path d="M256.021 268.739C256.021 268.739 256.06 268.804 256.145 268.922L256.531 269.433L258.037 271.363L258.109 271.448L258.174 271.363C259.117 270.054 260.386 268.3 261.878 266.239H261.662C262.768 267.796 263.992 269.511 265.308 271.403L265.425 271.566L265.556 271.409L269.882 266.265H269.627L269.869 266.566L273.737 271.416L273.868 271.579L273.986 271.409L277.631 266.245H277.422L281.918 271.37L281.996 271.461L282.055 271.357L283.462 268.994C283.613 268.739 283.73 268.529 283.822 268.34C283.872 268.27 283.91 268.193 283.933 268.111C283.876 268.173 283.826 268.241 283.783 268.314L283.384 268.922L281.911 271.239H282.048L277.618 266.069L277.507 265.938L277.408 266.082C276.289 267.646 275.052 269.354 273.724 271.219H273.973L270.111 266.363L269.876 266.069L269.751 265.912L269.627 266.062L265.314 271.219H265.556L261.872 266.075L261.761 265.925L261.656 266.075L257.984 271.265H258.115L256.545 269.387L256.126 268.903C256.056 268.789 256.021 268.735 256.021 268.739Z" fill="#F5F5F5"/>
<path d="M255.157 262.018C255.157 262.109 261.643 262.181 269.64 262.181C277.637 262.181 284.13 262.109 284.13 262.018C284.13 261.926 277.644 261.854 269.64 261.854C261.636 261.854 255.157 261.926 255.157 262.018Z" fill="#F5F5F5"/>
<path d="M253.848 283.955C253.848 284.047 260.897 284.118 269.594 284.118C278.292 284.118 285.34 284.047 285.34 283.955C285.34 283.863 278.292 283.798 269.594 283.798C260.897 283.798 253.848 283.863 253.848 283.955Z" fill="#F5F5F5"/>
<path d="M117.664 23.4837C117.558 24.1696 117.252 24.8089 116.783 25.3207C116.315 25.8325 115.705 26.1938 115.031 26.3589C114.357 26.524 113.649 26.4855 112.997 26.2482C112.345 26.0109 111.778 25.5856 111.367 25.026C110.957 24.4664 110.722 23.7976 110.692 23.1043C110.662 22.411 110.838 21.7244 111.198 21.1312C111.558 20.5381 112.086 20.065 112.715 19.772C113.344 19.479 114.046 19.3791 114.732 19.485C115.651 19.6269 116.475 20.1278 117.025 20.8775C117.575 21.6273 117.805 22.5647 117.664 23.4837Z" fill="#E0E0E0"/>
<path d="M117.336 22.2402C117.042 22.4038 115.131 19.2101 113.652 14.9366C112.173 10.663 111.132 7.21406 111.42 7.08317C111.708 6.95228 113.338 10.2834 114.797 14.5243C116.257 18.7651 117.631 22.0832 117.336 22.2402Z" fill="#E0E0E0"/>
<path d="M122.657 5.46011C122.86 5.66299 120.818 7.76378 117.369 8.57529C115.904 8.95935 114.362 8.9299 112.912 8.49022C111.787 8.11063 111.302 7.48891 111.401 7.37765C111.499 7.26639 112.101 7.53472 113.115 7.65252C114.446 7.80867 115.795 7.71995 117.094 7.39074C120.196 6.67739 122.441 5.15906 122.657 5.46011Z" fill="#E0E0E0"/>
<path d="M128.901 21.8476C128.795 22.5335 128.489 23.1728 128.02 23.6846C127.552 24.1963 126.942 24.5576 126.268 24.7227C125.594 24.8879 124.886 24.8493 124.234 24.6121C123.582 24.3748 123.015 23.9495 122.604 23.3898C122.194 22.8302 121.959 22.1615 121.929 21.4682C121.899 20.7749 122.075 20.0883 122.435 19.4951C122.795 18.9019 123.323 18.4289 123.952 18.1359C124.581 17.8428 125.283 17.743 125.969 17.8489C126.424 17.9183 126.861 18.0769 127.255 18.3156C127.649 18.5543 127.992 18.8683 128.264 19.2398C128.537 19.6113 128.733 20.0328 128.842 20.4803C128.951 20.9278 128.971 21.3924 128.901 21.8476V21.8476Z" fill="#E0E0E0"/>
<path d="M128.573 20.6172C128.279 20.7808 126.368 17.5871 124.889 13.307C123.41 9.02687 122.369 5.591 122.657 5.45357C122.945 5.31613 124.575 8.64728 126.034 12.8881C127.493 17.129 128.874 20.4601 128.573 20.6172Z" fill="#E0E0E0"/>
<path d="M123.547 7.67872C123.796 7.8816 121.976 10.0151 118.77 10.8921C115.563 11.769 112.912 10.8921 113.024 10.6172C113.135 10.3423 115.576 10.5518 118.442 9.72061C121.309 8.88945 123.311 7.41039 123.547 7.67872Z" fill="#E0E0E0"/>
<path d="M19.6532 63.5622C19.3639 63.7583 19.023 63.8642 18.6735 63.8665C18.324 63.8688 17.9817 63.7675 17.6899 63.5752C17.398 63.383 17.1697 63.1086 17.0338 62.7866C16.8979 62.4646 16.8606 62.1096 16.9265 61.7664C16.9924 61.4232 17.1586 61.1072 17.404 60.8584C17.6495 60.6097 17.9632 60.4393 18.3055 60.3688C18.6478 60.2983 19.0033 60.331 19.3271 60.4625C19.6508 60.5941 19.9283 60.8188 20.1244 61.108C20.2555 61.2998 20.3473 61.5157 20.3945 61.7431C20.4418 61.9706 20.4436 62.2051 20.3998 62.4332C20.356 62.6614 20.2675 62.8786 20.1393 63.0723C20.0112 63.2661 19.846 63.4326 19.6532 63.5622V63.5622Z" fill="#E0E0E0"/>
<path d="M20 63.019C19.8364 62.9667 20.36 61.1604 21.4333 59.1447C22.5066 57.129 23.3966 55.5648 23.5668 55.6237C23.7369 55.6826 23.0432 57.43 21.9765 59.4261C20.9097 61.4222 20.1571 63.0714 20 63.019Z" fill="#E0E0E0"/>
<path d="M28.0236 59.2167C28.0236 59.3606 26.5445 59.3279 25.0589 58.3331C24.4114 57.9252 23.8902 57.3451 23.5537 56.6578C23.3115 56.1146 23.377 55.7219 23.449 55.7219C23.521 55.7219 23.6322 56.0295 23.9333 56.4483C24.3359 56.9922 24.8323 57.4598 25.3992 57.8292C26.7278 58.7258 28.0694 59.0334 28.0236 59.2167Z" fill="#E0E0E0"/>
<path d="M24.1165 67.1552C23.8278 67.3522 23.4871 67.4591 23.1376 67.4625C22.788 67.4658 22.4454 67.3654 22.1529 67.174C21.8604 66.9825 21.6313 66.7086 21.4945 66.3869C21.3578 66.0653 21.3195 65.7102 21.3845 65.3668C21.4495 65.0233 21.6149 64.7069 21.8598 64.4575C22.1048 64.2081 22.4181 64.0369 22.7603 63.9656C23.1025 63.8943 23.4582 63.9262 23.7823 64.0571C24.1064 64.188 24.3845 64.412 24.5812 64.701C24.8448 65.0881 24.944 65.564 24.8568 66.0242C24.7697 66.4844 24.5034 66.8912 24.1165 67.1552V67.1552Z" fill="#E0E0E0"/>
<path d="M24.4568 66.612C24.2932 66.5596 24.8168 64.7533 25.8901 62.7376C26.9634 60.7219 27.8534 59.1578 28.0236 59.2167C28.1937 59.2756 27.5066 61.023 26.4333 63.019C25.36 65.0151 24.6204 66.6774 24.4568 66.612Z" fill="#E0E0E0"/>
<path d="M27.5066 60.3096C27.5066 60.4732 26.106 60.5321 24.6793 59.6552C23.2526 58.7782 22.6636 57.4955 22.8076 57.4366C22.9516 57.3777 23.6911 58.3528 25 59.125C26.3089 59.8973 27.5262 60.1329 27.5066 60.3096Z" fill="#E0E0E0"/>
<path d="M67.1335 29.125L50.5236 27.0962C49.9836 27.0212 49.4943 26.7385 49.1594 26.3084C48.8246 25.8782 48.6707 25.3344 48.7304 24.7926L51.5445 1.84102C51.6116 1.29006 51.8947 0.788272 52.3316 0.445903C52.7684 0.103535 53.3233 -0.0514139 53.8744 0.0150998L64.3914 1.324L71.5052 10.7154L69.4634 27.3515C69.3869 27.8944 69.0993 28.3852 68.6631 28.7173C68.2269 29.0494 67.6772 29.1959 67.1335 29.125V29.125Z" fill="#EBEBEB"/>
<path d="M64.3913 1.2782L63.6126 7.73762C63.555 8.24876 63.7004 8.76207 64.0173 9.16717C64.3343 9.57226 64.7976 9.83678 65.3076 9.90385L71.5183 10.6696L64.3913 1.2782Z" fill="#F5F5F5"/>
<path d="M63.6126 8.32007C63.5562 8.80959 63.6689 9.30367 63.932 9.72032C64.195 10.137 64.5927 10.4511 65.0589 10.6106L65.2618 10.6761C66.0537 10.9248 71.2762 12.5282 71.2893 12.4038C71.3024 12.2795 71.5053 10.6695 71.5053 10.6695L65.2945 9.90384C65.2945 9.90384 63.75 9.66169 63.6126 8.32007Z" fill="#E0E0E0"/>
<path d="M62.2383 7.30569C60.9469 7.30142 59.6579 7.19419 58.3836 6.98501C57.0975 6.87779 55.8217 6.66991 54.5681 6.36328C55.8592 6.37523 57.1476 6.48242 58.4228 6.68396C59.709 6.79043 60.9848 6.99831 62.2383 7.30569V7.30569Z" fill="#FAFAFA"/>
<path d="M66.7474 11.5661C66.7474 11.6512 63.9006 11.3698 60.4189 10.9444C56.9372 10.519 54.11 10.1002 54.1231 10.0151C54.1362 9.93001 56.9634 10.2114 60.4516 10.6695C63.9398 11.1277 66.7605 11.4811 66.7474 11.5661Z" fill="#FAFAFA"/>
<path d="M67.5393 14.7533C67.5393 14.8384 64.4372 14.5308 60.6348 14.0596C56.8324 13.5884 53.7631 13.1499 53.7762 13.0714C53.7893 12.9928 56.8717 13.2939 60.6741 13.7258C64.4764 14.1578 67.5393 14.6748 67.5393 14.7533Z" fill="#FAFAFA"/>
<path d="M67.1597 17.6329C67.1597 17.718 64.0576 17.4039 60.2618 16.9392C56.466 16.4745 53.3836 16.0295 53.3966 15.9444C53.4097 15.8593 56.4922 16.1735 60.2946 16.6381C64.0969 17.1028 67.1728 17.5478 67.1597 17.6329Z" fill="#FAFAFA"/>
<path d="M66.8063 20.5125C66.8063 20.591 63.7042 20.2834 59.9084 19.8188C56.1126 19.3541 53.0302 18.9025 53.0433 18.824C53.0563 18.7455 56.1388 19.0531 59.9412 19.5177C63.7435 19.9824 66.8194 20.4274 66.8063 20.5125Z" fill="#FAFAFA"/>
<path d="M66.4529 23.3855C66.4529 23.4706 63.3574 23.163 59.555 22.7311C55.7527 22.2991 52.6768 21.8148 52.6899 21.7363C52.7029 21.6578 55.792 21.9588 59.5878 22.43C63.3836 22.9012 66.466 23.307 66.4529 23.3855Z" fill="#FAFAFA"/>
<path d="M95.3216 78.0027C96.7732 77.5837 97.6102 76.0673 97.1913 74.6157C96.7723 73.1642 95.2559 72.3271 93.8043 72.746C92.3528 73.165 91.5157 74.6814 91.9346 76.133C92.3536 77.5845 93.87 78.4216 95.3216 78.0027Z" fill="#E0E0E0"/>
<path d="M96.8979 74.4654C96.767 74.5635 94.9869 72.3057 93.3377 69.1905C91.6885 66.0753 90.3992 63.5753 90.5236 63.4968C90.6479 63.4183 92.2317 65.807 93.8613 68.9025C95.4908 71.9981 97.0288 74.3607 96.8979 74.4654Z" fill="#E0E0E0"/>
<path d="M95.5563 60.4667C95.7068 60.519 95.1309 61.9457 93.5929 62.9339C92.055 63.9222 90.5301 63.8763 90.5432 63.7193C90.5563 63.5622 91.8913 63.3332 93.2657 62.4104C94.64 61.4876 95.4057 60.3816 95.5563 60.4667Z" fill="#E0E0E0"/>
<path d="M96.7539 63.0452C96.911 63.0779 96.394 64.5243 94.8233 65.375C93.2526 66.2258 91.767 65.9182 91.8259 65.7677C91.8848 65.6172 93.1348 65.6237 94.5353 64.8515C95.9359 64.0792 96.5969 62.9536 96.7539 63.0452Z" fill="#E0E0E0"/>
<path d="M136.008 104.433L140.013 103.215L157.408 102.705L161.335 103.772L160.825 113.34L151.944 119.001L143.331 118.831L137.919 113.896L136.721 109.007L136.008 104.433Z" fill="#FFBE9D"/>
<path d="M186.25 119.492C185.207 117.304 184.029 115.184 182.723 113.143C180.609 109.899 177.376 107.547 173.639 106.533L159.444 102.685C159.444 102.685 158.711 116.867 148.973 116.867C139.234 116.867 137.31 103.575 137.31 103.575L120.884 110.12C120.321 110.336 116.505 111.658 112.075 121.16C107.853 130.211 106.008 134.845 106.008 134.845L122.932 139.727L123.986 154.95L123.39 174.662H175.092L174.405 153.765L174.889 138.359L175.543 139.393L192.631 132.541C192.631 132.541 190.406 128.052 186.25 119.492Z" fill="#1DB954"/>
<path d="M123.58 168.071C123.213 169.563 122.271 172.882 121.689 174.276C121.568 174.704 121.568 175.156 121.689 175.584C121.891 176.01 122.742 175.853 123.207 175.761C127.474 174.93 132.192 175.617 136.361 176.861C140.694 178.17 144.869 180.565 149.365 180.486C152.408 180.434 155.301 179.249 158.226 178.392C163.654 176.805 169.342 176.314 174.961 176.946C175.341 177.031 175.738 176.982 176.086 176.808C176.584 176.468 176.545 175.742 176.446 175.146C176.23 173.739 174.745 169.871 174.385 168.477" fill="#1DB954"/>
<path d="M120.694 119.184C120.792 119.184 121.348 123.87 121.904 129.655C122.461 135.441 122.866 140.179 122.775 140.185C122.683 140.192 122.12 135.499 121.564 129.714C121.008 123.929 120.602 119.191 120.694 119.184Z" fill="#263238"/>
<path d="M175.746 121.278C175.838 121.278 175.694 125.656 175.419 131.043C175.144 136.429 174.843 140.794 174.764 140.787C174.686 140.781 174.817 136.409 175.092 131.023C175.366 125.637 175.654 121.272 175.746 121.278Z" fill="#263238"/>
<path d="M162.258 103.412C162.255 103.564 162.233 103.716 162.192 103.863C162.134 104.19 162.048 104.616 161.944 105.172C161.624 106.75 161.213 108.308 160.713 109.838C159.993 112.134 158.815 114.26 157.251 116.088C156.308 117.152 155.182 118.039 153.927 118.706C152.561 119.426 151.04 119.8 149.496 119.793C146.511 119.728 143.65 118.587 141.44 116.579C139.669 114.949 138.272 112.955 137.343 110.735C136.708 109.259 136.219 107.725 135.884 106.154C135.766 105.598 135.687 105.166 135.648 104.845C135.614 104.697 135.597 104.545 135.596 104.393C135.65 104.535 135.689 104.682 135.713 104.832L136.014 106.108C136.394 107.66 136.911 109.176 137.559 110.637C138.503 112.807 139.898 114.752 141.649 116.344C143.813 118.283 146.598 119.385 149.503 119.452C150.991 119.458 152.457 119.1 153.776 118.412C155.011 117.76 156.119 116.894 157.048 115.853C158.598 114.06 159.777 111.978 160.517 109.727C161.171 107.823 161.564 106.219 161.826 105.146L162.14 103.876C162.169 103.719 162.208 103.564 162.258 103.412Z" fill="#263238"/>
<path d="M141.806 113.608C141.865 113.687 141.518 114.02 141.041 114.361C140.563 114.701 140.124 114.904 140.072 114.825C140.02 114.747 140.36 114.413 140.844 114.079C141.329 113.745 141.754 113.536 141.806 113.608Z" fill="#263238"/>
<path d="M147.631 119.59C147.518 119.136 147.518 118.662 147.631 118.209C147.64 117.753 147.754 117.305 147.965 116.9C148.063 116.9 148.063 117.554 147.965 118.281C147.957 118.737 147.843 119.185 147.631 119.59V119.59Z" fill="#263238"/>
<path d="M156.243 117.155C156.178 117.221 155.635 116.815 155.033 116.239C154.431 115.663 153.999 115.153 154.058 115.081C154.117 115.009 154.666 115.421 155.268 115.997C155.87 116.573 156.309 117.07 156.243 117.155Z" fill="#263238"/>
<path d="M159.817 111.409C159.764 111.488 159.274 111.259 158.678 110.984C158.082 110.709 157.579 110.493 157.605 110.395C157.631 110.297 158.194 110.395 158.815 110.676C159.437 110.958 159.869 111.331 159.817 111.409Z" fill="#263238"/>
<path d="M138.22 107.653C138.253 107.738 137.906 107.947 137.448 108.117C136.989 108.287 136.59 108.359 136.558 108.268C136.525 108.176 136.872 107.973 137.33 107.803C137.788 107.633 138.22 107.567 138.22 107.653Z" fill="#263238"/>
<g opacity="0.3">
<path opacity="0.3" d="M175.615 123.883L177.33 138.693L175.517 139.42L174.876 138.386L175.615 123.883Z" fill="black"/>
</g>
<path d="M117.278 119.78C116.647 119.669 116.053 119.404 115.55 119.007C114.666 118.431 114.084 117.797 114.149 117.698C115.221 118.335 116.265 119.019 117.278 119.747V119.78Z" fill="white"/>
<path d="M131.119 121.913C130.172 121.989 129.218 121.954 128.279 121.808C127.327 121.776 126.382 121.628 125.465 121.37C126.415 121.294 127.37 121.329 128.312 121.475C129.262 121.503 130.205 121.65 131.119 121.913V121.913Z" fill="white"/>
<path d="M146.113 124.668C145.165 124.673 144.218 124.59 143.285 124.42C142.339 124.363 141.4 124.225 140.478 124.007C141.425 123.889 142.385 123.914 143.325 124.079C144.278 124.138 145.217 124.337 146.113 124.668Z" fill="white"/>
<path d="M165.157 122.725C164.093 123.073 162.997 123.312 161.885 123.438C160.794 123.675 159.683 123.802 158.567 123.817C160.719 123.232 162.925 122.866 165.151 122.725H165.157Z" fill="white"/>
<path d="M176.832 118.294C176.427 118.817 175.883 119.216 175.262 119.446C174.688 119.778 174.032 119.939 173.37 119.91C173.935 119.614 174.519 119.356 175.118 119.138C175.669 118.818 176.242 118.536 176.832 118.294V118.294Z" fill="white"/>
<path d="M183.606 116.566C182.987 117.059 182.278 117.425 181.518 117.646C180.796 117.976 180.015 118.156 179.221 118.176C179.926 117.832 180.66 117.549 181.414 117.332C182.117 117.005 182.852 116.749 183.606 116.566V116.566Z" fill="white"/>
<path d="M169.771 115.656C167.865 116.335 165.889 116.801 163.881 117.044C164.811 116.648 165.784 116.361 166.78 116.187C167.754 115.897 168.757 115.719 169.771 115.656V115.656Z" fill="white"/>
<path d="M179.247 111.429C178.517 111.98 177.721 112.44 176.878 112.797C176.082 113.251 175.234 113.607 174.352 113.857C175.877 112.848 177.521 112.032 179.247 111.429V111.429Z" fill="white"/>
<path d="M168.979 110.211C167.692 110.735 166.328 111.042 164.941 111.121C165.557 110.808 166.22 110.598 166.904 110.499C167.576 110.292 168.276 110.195 168.979 110.211V110.211Z" fill="white"/>
<path d="M175.295 108.248C175.334 108.34 174.921 108.588 174.378 108.811C173.835 109.033 173.37 109.138 173.331 109.053C173.292 108.968 173.711 108.713 174.254 108.497C174.797 108.281 175.262 108.163 175.295 108.248Z" fill="white"/>
<path d="M150.615 121.651C149.654 121.849 148.666 121.876 147.696 121.73C146.716 121.684 145.752 121.462 144.849 121.075C145.814 121.116 146.775 121.212 147.729 121.363C148.696 121.405 149.659 121.501 150.615 121.651V121.651Z" fill="white"/>
<path d="M160.19 118.988C160.19 119.079 159.666 119.308 158.966 119.498C158.266 119.688 157.657 119.766 157.657 119.675C157.657 119.583 158.181 119.361 158.881 119.164C159.581 118.968 160.164 118.896 160.19 118.988Z" fill="white"/>
<path d="M137.703 118.85C136.93 118.945 136.147 118.925 135.38 118.791C134.6 118.771 133.828 118.634 133.089 118.386C133.863 118.295 134.645 118.317 135.412 118.451C136.191 118.476 136.962 118.61 137.703 118.85V118.85Z" fill="white"/>
<path d="M127.428 116.376C126.577 116.376 125.729 116.261 124.908 116.036C124.067 115.93 123.243 115.709 122.461 115.382C123.312 115.382 124.159 115.497 124.98 115.722C125.821 115.832 126.644 116.052 127.428 116.376V116.376Z" fill="white"/>
<path d="M128.128 110.663C127.494 110.775 126.845 110.775 126.211 110.663C125.565 110.661 124.924 110.543 124.319 110.316C124.956 110.205 125.607 110.205 126.243 110.316C126.887 110.319 127.526 110.436 128.128 110.663V110.663Z" fill="white"/>
<path d="M135.046 113.098C134.492 113.317 133.883 113.356 133.305 113.209C132.712 113.171 132.146 112.942 131.695 112.554C132.257 112.631 132.815 112.74 133.364 112.882C133.929 112.913 134.491 112.985 135.046 113.098V113.098Z" fill="white"/>
<path d="M134.241 108.261C133.672 108.272 133.107 108.17 132.578 107.96C132.017 107.848 131.483 107.625 131.008 107.306C131.576 107.291 132.142 107.391 132.67 107.6C133.233 107.713 133.767 107.938 134.241 108.261V108.261Z" fill="white"/>
<path d="M166.767 105.944C166.767 106.036 166.374 106.239 165.838 106.403C165.301 106.566 164.836 106.618 164.81 106.527C164.784 106.435 165.196 106.232 165.739 106.075C166.283 105.918 166.741 105.872 166.767 105.944Z" fill="white"/>
<path d="M117.651 126.088C116.317 125.714 115.053 125.126 113.907 124.348C115.243 124.715 116.508 125.304 117.651 126.088V126.088Z" fill="white"/>
<path d="M112.042 131.821C111.381 131.868 110.718 131.804 110.079 131.632C109.417 131.562 108.771 131.383 108.168 131.101C109.496 131.112 110.811 131.356 112.055 131.821H112.042Z" fill="white"/>
<path d="M119.817 134.557C119.009 134.377 118.215 134.139 117.441 133.844C116.633 133.657 115.839 133.414 115.065 133.117C116.75 133.16 118.392 133.658 119.817 134.557V134.557Z" fill="white"/>
<path d="M127.749 128.196C126.366 128.423 124.956 128.423 123.573 128.196C124.956 127.969 126.366 127.969 127.749 128.196V128.196Z" fill="white"/>
<path d="M131.021 136.861C130.124 136.689 129.237 136.471 128.364 136.206C127.463 136.034 126.572 135.815 125.694 135.552C127.554 135.507 129.393 135.959 131.021 136.861Z" fill="white"/>
<path d="M146.381 133.124C145.932 133.188 145.475 133.188 145.026 133.124C143.929 133.05 142.837 132.917 141.754 132.725C140.679 132.536 139.615 132.292 138.567 131.992C138.121 131.896 137.691 131.738 137.291 131.52C137.291 131.422 139.313 131.952 141.813 132.391C144.313 132.829 146.387 133.026 146.381 133.124Z" fill="white"/>
<path d="M146.459 138.713C145.474 138.825 144.48 138.825 143.495 138.713C142.505 138.72 141.519 138.608 140.556 138.379C141.539 138.271 142.531 138.271 143.514 138.379C144.505 138.38 145.493 138.492 146.459 138.713Z" fill="white"/>
<path d="M156.106 129.105C154.199 129.38 152.266 129.429 150.347 129.249C152.254 128.975 154.187 128.926 156.106 129.105V129.105Z" fill="white"/>
<path d="M164.313 136.304C162.947 136.626 161.557 136.831 160.157 136.92C158.768 137.121 157.365 137.213 155.962 137.194C157.329 136.881 158.719 136.675 160.118 136.579C161.507 136.378 162.909 136.286 164.313 136.304V136.304Z" fill="white"/>
<path d="M170.942 128.242C169.693 128.715 168.405 129.083 167.094 129.341C165.81 129.713 164.496 129.973 163.167 130.12C164.416 129.642 165.704 129.272 167.016 129.014C168.301 128.646 169.614 128.388 170.942 128.242V128.242Z" fill="white"/>
<path d="M171.643 133.536C171.249 133.958 170.739 134.254 170.177 134.387C169.647 134.622 169.06 134.697 168.488 134.603C168.995 134.372 169.523 134.193 170.066 134.066C170.571 133.835 171.1 133.658 171.643 133.536V133.536Z" fill="white"/>
<path d="M181.296 122.888C180.662 123.247 179.975 123.503 179.261 123.647C178.579 123.904 177.861 124.05 177.134 124.079C177.769 123.724 178.456 123.468 179.169 123.32C179.852 123.071 180.569 122.925 181.296 122.888V122.888Z" fill="white"/>
<path d="M186.204 128.975C183.966 129.784 181.656 130.38 179.306 130.755C180.404 130.295 181.544 129.942 182.709 129.701C183.848 129.345 185.018 129.102 186.204 128.975V128.975Z" fill="white"/>
<path d="M187.919 123.903C187.178 124.392 186.377 124.783 185.537 125.067C184.738 125.456 183.894 125.742 183.024 125.918C184.564 125.042 186.209 124.365 187.919 123.903V123.903Z" fill="white"/>
<path d="M182.88 134.269C181.696 135.138 180.384 135.818 178.992 136.285C180.176 135.416 181.487 134.736 182.88 134.269V134.269Z" fill="white"/>
<path d="M133.207 147.698C132.292 147.794 131.369 147.779 130.458 147.653C129.538 147.636 128.624 147.506 127.736 147.266C128.65 147.171 129.573 147.186 130.484 147.312C131.404 147.329 132.319 147.459 133.207 147.698V147.698Z" fill="white"/>
<path d="M137.808 144.092C135.801 143.878 133.826 143.439 131.918 142.783C132.93 142.828 133.933 142.988 134.908 143.261C135.903 143.428 136.876 143.706 137.808 144.092V144.092Z" fill="white"/>
<path d="M154.516 144.06C152.892 144.287 151.244 144.287 149.62 144.06C151.244 143.832 152.892 143.832 154.516 144.06Z" fill="white"/>
<path d="M151.78 149.93C151.355 150.05 150.913 150.103 150.471 150.087C149.431 150.125 148.39 150.088 147.356 149.976C146.32 149.866 145.294 149.678 144.287 149.413C143.862 149.333 143.451 149.19 143.069 148.988C143.069 148.889 144.993 149.387 147.395 149.642C149.797 149.897 151.774 149.825 151.78 149.93Z" fill="white"/>
<path d="M170.065 145.781C168.821 146.096 167.54 146.241 166.257 146.213C164.977 146.296 163.691 146.208 162.435 145.951C162.435 145.853 164.149 145.918 166.25 145.872C168.351 145.827 170.052 145.683 170.065 145.781Z" fill="white"/>
<path d="M169.777 140.46C168.095 140.975 166.352 141.265 164.594 141.324C166.277 140.811 168.019 140.52 169.777 140.46V140.46Z" fill="white"/>
<path d="M131.191 171.992C130.206 172.009 129.221 171.976 128.24 171.893C127.256 171.928 126.27 171.913 125.288 171.848C126.251 171.577 127.255 171.477 128.253 171.553C129.25 171.524 130.245 171.673 131.191 171.992Z" fill="white"/>
<path d="M141.846 175.159C140.638 175.215 139.428 175.153 138.233 174.976C137.024 174.912 135.823 174.736 134.647 174.452C135.856 174.397 137.068 174.458 138.266 174.636C139.473 174.699 140.671 174.874 141.846 175.159V175.159Z" fill="white"/>
<path d="M152.212 177.607C151.062 177.998 149.86 178.218 148.645 178.261C147.438 178.415 146.214 178.393 145.013 178.196C145.013 178.098 146.636 178.084 148.619 177.927C150.602 177.77 152.193 177.509 152.212 177.607Z" fill="white"/>
<path d="M151.211 172.757C150.268 172.969 149.304 173.074 148.338 173.071C147.379 173.183 146.41 173.183 145.452 173.071C146.391 172.851 147.353 172.746 148.318 172.757C149.279 172.638 150.25 172.638 151.211 172.757V172.757Z" fill="white"/>
<path d="M142.566 169.858C141.266 170.049 139.952 170.13 138.639 170.1C137.316 170.179 135.99 170.146 134.673 170.002C135.983 169.81 137.308 169.729 138.632 169.76C139.944 169.683 141.259 169.715 142.566 169.858Z" fill="white"/>
<path d="M162.723 169.668C161.471 169.933 160.199 170.086 158.92 170.126C157.65 170.28 156.369 170.32 155.092 170.244C156.344 169.983 157.616 169.83 158.894 169.786C160.164 169.636 161.445 169.597 162.723 169.668V169.668Z" fill="white"/>
<path d="M163.442 173.588C163.442 173.693 161.747 173.824 159.719 174.321C157.69 174.819 156.113 175.473 156.073 175.382C157.168 174.706 158.377 174.234 159.64 173.988C160.874 173.634 162.161 173.499 163.442 173.588V173.588Z" fill="white"/>
<path d="M173.377 171.389C172.833 171.616 172.251 171.738 171.662 171.749C171.086 171.864 170.492 171.864 169.915 171.749C171.033 171.397 172.209 171.268 173.377 171.37V171.389Z" fill="white"/>
<path d="M161.499 106.187C161.459 106.272 160.929 106.082 160.275 105.859C159.62 105.637 159.084 105.48 159.097 105.382C159.539 105.29 159.998 105.345 160.406 105.539C161.067 105.768 161.545 106.108 161.499 106.187Z" fill="#263238"/>
<path d="M134.359 156.088C133.162 156.135 131.963 156.067 130.779 155.886C129.584 155.818 128.399 155.638 127.238 155.349C128.433 155.298 129.63 155.366 130.812 155.552C132.008 155.62 133.196 155.799 134.359 156.088Z" fill="white"/>
<path d="M145.288 154.577C144.386 154.695 143.473 154.695 142.572 154.577C141.665 154.572 140.762 154.458 139.882 154.236C140.784 154.118 141.697 154.118 142.598 154.236C143.505 154.241 144.408 154.355 145.288 154.577V154.577Z" fill="white"/>
<path d="M162.598 153.359C162.598 153.457 161.047 153.444 159.156 153.615C157.264 153.785 155.74 154.053 155.72 153.955C156.813 153.559 157.961 153.338 159.123 153.3C160.277 153.134 161.45 153.154 162.598 153.359V153.359Z" fill="white"/>
<path d="M170.452 159.505C168.859 159.653 167.258 159.688 165.661 159.609C164.063 159.641 162.464 159.56 160.877 159.367C162.469 159.215 164.07 159.18 165.668 159.262C167.266 159.231 168.865 159.312 170.452 159.505Z" fill="white"/>
<path d="M171.067 151.632C169.983 152.232 168.729 152.449 167.507 152.247C168.083 152.068 168.678 151.954 169.28 151.906C169.864 151.751 170.463 151.659 171.067 151.632V151.632Z" fill="white"/>
<path d="M152.029 159.328C151.142 159.672 150.189 159.811 149.241 159.734C148.288 159.768 147.34 159.589 146.466 159.21C146.466 159.112 147.716 159.367 149.247 159.393C150.779 159.42 152.009 159.23 152.029 159.328Z" fill="white"/>
<path d="M141.97 160.473C140.177 160.7 138.363 160.7 136.571 160.473C138.363 160.246 140.177 160.246 141.97 160.473Z" fill="white"/>
<path d="M134.725 164.282C133.296 164.463 131.848 164.421 130.432 164.158C131.139 164.006 131.866 163.968 132.585 164.047C133.307 164.008 134.029 164.088 134.725 164.282V164.282Z" fill="white"/>
<path d="M150.196 165.65C149.054 165.783 147.9 165.801 146.754 165.702C145.602 165.717 144.451 165.621 143.318 165.414C144.463 165.285 145.618 165.267 146.767 165.362C147.917 165.347 149.065 165.443 150.196 165.65V165.65Z" fill="white"/>
<path d="M163.698 163.673C162.696 163.708 161.693 163.684 160.694 163.601C159.689 163.629 158.684 163.598 157.683 163.51C158.668 163.258 159.688 163.174 160.7 163.261C161.715 163.232 162.728 163.372 163.698 163.673V163.673Z" fill="white"/>
<path d="M173.397 166.488C172.38 166.614 171.358 166.679 170.334 166.684C169.313 166.803 168.286 166.86 167.258 166.854C169.255 166.297 171.348 166.172 173.397 166.488V166.488Z" fill="white"/>
<path d="M127.094 160.722C127.094 160.814 126.603 160.971 125.956 161.069C125.308 161.167 124.777 161.18 124.764 161.069C124.751 160.958 125.262 160.82 125.903 160.715C126.545 160.611 127.094 160.624 127.094 160.722Z" fill="white"/>
<path d="M128.22 140.951C128.22 141.049 127.605 141.18 126.826 141.245C126.353 141.343 125.865 141.327 125.399 141.2C126.306 140.891 127.273 140.806 128.22 140.951V140.951Z" fill="white"/>
<path d="M137.31 126.566C136.839 126.677 136.348 126.677 135.877 126.566C135.098 126.461 134.476 126.304 134.489 126.206C134.961 126.096 135.451 126.096 135.923 126.206C136.702 126.311 137.323 126.468 137.31 126.566Z" fill="white"/>
<path d="M171.44 125.139C170.411 125.486 169.35 125.725 168.272 125.853C167.215 126.092 166.136 126.219 165.052 126.232C166.081 125.885 167.142 125.644 168.22 125.512C169.277 125.273 170.356 125.148 171.44 125.139V125.139Z" fill="white"/>
<g opacity="0.3">
<path opacity="0.3" d="M123.226 168.372C124.182 169.963 126.178 170.617 128.037 170.722C129.895 170.827 131.76 170.506 133.606 170.722C136.499 171.075 139.077 172.725 141.911 173.438C148.357 175.048 155 171.612 161.623 171.586C163.881 171.586 166.126 171.965 168.384 172.057C170.641 172.149 172.997 171.92 174.928 170.787L174.764 168.366L123.226 168.372Z" fill="black"/>
</g>
<path d="M169.346 202.522H131.047V211.73H169.346V202.522Z" fill="#455A64"/>
<path d="M134.038 211.73L114.542 287.358H118.743L140.124 211.73H134.038Z" fill="#455A64"/>
<path d="M165.327 211.73L184.967 287.358H180.766L159.241 211.73H165.327Z" fill="#455A64"/>
<path d="M159.306 211.965C159.365 212.037 153.711 217.116 146.669 223.307C139.627 229.498 133.868 234.465 133.809 234.393C133.75 234.321 139.404 229.249 146.446 223.052C153.488 216.854 159.241 211.9 159.306 211.965Z" fill="#263238"/>
<path d="M168.829 234.642C168.77 234.721 162.14 229.622 154.018 223.268C145.897 216.913 139.365 211.704 139.424 211.625C139.483 211.547 146.106 216.645 154.228 222.999C162.349 229.354 168.881 234.57 168.829 234.642Z" fill="#263238"/>
<path d="M169.162 211.736C169.162 211.828 160.798 211.906 150.484 211.906C140.17 211.906 131.806 211.828 131.806 211.736C131.806 211.645 140.17 211.56 150.484 211.56C160.798 211.56 169.162 211.638 169.162 211.736Z" fill="#263238"/>
<path d="M152.853 260.395L145 272.954L168.914 288.006C170.223 285.637 160.733 273.255 160.733 273.255L164.529 267.679L152.853 260.395Z" fill="#1DB954"/>
<g opacity="0.3">
<path opacity="0.3" d="M152.801 260.395L144.98 272.954L168.901 288.006C170.209 285.637 160.713 273.255 160.713 273.255L164.509 267.679L152.801 260.395Z" fill="black"/>
</g>
<path d="M153.973 267.594C153.706 267.522 153.422 267.549 153.174 267.669C152.925 267.789 152.728 267.995 152.618 268.248C152.532 268.517 152.552 268.809 152.673 269.065C152.795 269.32 153.009 269.519 153.272 269.622C153.563 269.699 153.872 269.666 154.14 269.53C154.408 269.393 154.616 269.163 154.725 268.883C154.769 268.599 154.705 268.308 154.545 268.07C154.385 267.831 154.141 267.661 153.861 267.594" fill="white"/>
<path d="M145.026 272.888L146.23 270.925L168.678 286.291C168.678 286.291 169.444 287.43 168.848 288.098L145.026 272.888Z" fill="white"/>
<path d="M161.178 273.405C161.1 273.516 160.484 273.202 159.673 273.215C158.861 273.228 158.246 273.529 158.168 273.412C158.089 273.294 158.691 272.757 159.673 272.757C160.655 272.757 161.27 273.314 161.178 273.405Z" fill="#263238"/>
<path d="M163.037 276.023C162.991 276.147 162.382 276.023 161.649 276.272C160.916 276.52 160.497 276.972 160.386 276.893C160.275 276.815 160.615 276.101 161.499 275.82C162.382 275.539 163.089 275.905 163.037 276.023Z" fill="#263238"/>
<path d="M162.565 279.917C162.448 279.878 162.651 279.19 163.351 278.739C164.051 278.287 164.764 278.379 164.751 278.51C164.738 278.641 164.189 278.765 163.613 279.164C163.037 279.563 162.69 279.982 162.565 279.917Z" fill="#263238"/>
<path d="M162.742 270.454C162.624 270.526 162.192 270.028 161.505 269.655C160.818 269.282 160.196 269.171 160.196 269.033C160.196 268.896 160.955 268.785 161.76 269.236C162.565 269.688 162.86 270.395 162.742 270.454Z" fill="#263238"/>
<path d="M154.673 260.552L162.467 272.685L138.763 288.084C137.454 285.728 146.741 273.215 146.741 273.215L143.076 267.98L154.673 260.552Z" fill="#1DB954"/>
<g opacity="0.6">
<path opacity="0.6" d="M153.403 267.43C153.674 267.348 153.966 267.37 154.223 267.491C154.479 267.611 154.681 267.823 154.791 268.084C154.878 268.355 154.86 268.648 154.738 268.905C154.616 269.162 154.401 269.362 154.136 269.465C153.846 269.548 153.535 269.521 153.264 269.388C152.994 269.255 152.782 269.026 152.67 268.745C152.608 268.454 152.661 268.151 152.817 267.897C152.973 267.644 153.22 267.46 153.508 267.384" fill="white"/>
</g>
<g opacity="0.6">
<path opacity="0.6" d="M162.435 272.607L161.204 270.643L138.953 286.35C138.953 286.35 138.207 287.502 138.809 288.163L162.435 272.607Z" fill="white"/>
</g>
<path d="M146.276 273.346C146.355 273.457 146.97 273.137 147.781 273.137C148.593 273.137 149.208 273.431 149.287 273.314C149.365 273.196 148.757 272.659 147.775 272.659C146.793 272.659 146.185 273.255 146.276 273.346Z" fill="#263238"/>
<path d="M144.457 275.99C144.503 276.121 145.111 275.99 145.844 276.226C146.577 276.461 147.009 276.88 147.12 276.821C147.232 276.762 146.878 276.043 145.988 275.768C145.098 275.493 144.391 275.879 144.457 275.99Z" fill="#263238"/>
<path d="M144.98 279.884C145.105 279.838 144.889 279.158 144.175 278.713C143.462 278.268 142.762 278.372 142.775 278.503C142.788 278.634 143.344 278.752 143.92 279.125C144.496 279.498 144.856 279.943 144.98 279.884Z" fill="#263238"/>
<path d="M144.673 270.414C144.791 270.493 145.216 269.982 145.897 269.603C146.577 269.223 147.206 269.099 147.206 268.948C147.206 268.798 146.446 268.713 145.648 269.177C144.85 269.642 144.555 270.362 144.673 270.414Z" fill="#263238"/>
<path d="M123.01 174.478C123.01 174.478 102.225 195.009 106.571 209.701C110.033 221.311 140.124 270.002 140.124 270.002L158.194 258.183L134.679 214.387C134.436 212.244 133.998 210.128 133.37 208.065L134.679 206.317C134.679 206.317 142.474 202.626 149.018 203.045L149.601 174.681L123.01 174.478Z" fill="#263238"/>
<path d="M149.018 203.058C149.018 203.058 161.191 206.075 163.743 206.075C165.353 206.075 164.47 210.892 165.34 212.855V213.281L148.259 258.536L165.883 268.935C165.883 268.935 179.202 235.408 182.042 229.74C184.882 224.073 189.444 210.886 191.204 206.965C192.965 203.045 190.55 196.265 187.5 190.375C184.45 184.485 174.849 174.668 174.849 174.668H149.601L149.018 203.058Z" fill="#263238"/>
<path d="M184.247 195.454C183.178 195.104 182.084 194.835 180.975 194.649C178.311 194.244 175.588 194.647 173.155 195.804C170.722 196.961 168.691 198.82 167.323 201.141C166.777 202.111 166.303 203.119 165.903 204.158C165.938 203.858 166.011 203.563 166.119 203.281C166.372 202.493 166.707 201.734 167.12 201.016C168.461 198.607 170.521 196.676 173.011 195.492C175.502 194.309 178.299 193.931 181.014 194.413C181.829 194.548 182.627 194.767 183.397 195.067C183.694 195.163 183.98 195.292 184.247 195.454Z" fill="#455A64"/>
<path d="M174.136 206.075C173.662 206.402 173.166 206.695 172.65 206.952C171.456 207.641 170.313 208.413 169.228 209.262C168.145 210.115 167.126 211.045 166.178 212.044C165.805 212.481 165.405 212.894 164.98 213.281C165.257 212.771 165.6 212.3 166.001 211.88C166.91 210.822 167.921 209.855 169.018 208.994C170.112 208.129 171.289 207.374 172.533 206.743C173.037 206.454 173.576 206.23 174.136 206.075V206.075Z" fill="#455A64"/>
<path d="M134.725 206.298C134.666 206.337 134.071 205.401 132.886 204.138C132.176 203.397 131.401 202.723 130.569 202.122C128.536 200.645 126.208 199.625 123.743 199.132C122.739 198.924 121.719 198.802 120.694 198.765C118.946 198.706 117.86 198.87 117.853 198.804C118.096 198.721 118.35 198.67 118.606 198.654C118.903 198.605 119.202 198.574 119.503 198.562C119.856 198.562 120.255 198.503 120.7 198.523C121.741 198.526 122.779 198.625 123.802 198.817C125.056 199.067 126.279 199.447 127.454 199.95C128.61 200.471 129.707 201.114 130.726 201.867C131.56 202.492 132.332 203.195 133.03 203.968C133.338 204.289 133.567 204.622 133.789 204.897C133.98 205.13 134.155 205.374 134.313 205.63C134.475 205.836 134.614 206.06 134.725 206.298V206.298Z" fill="#455A64"/>
<path d="M134.725 206.298C134.578 205.796 134.458 205.287 134.365 204.773C134.047 203.561 133.609 202.383 133.056 201.259C132.231 199.687 131.293 198.178 130.249 196.743C130.663 197.07 131.028 197.453 131.335 197.882C132.13 198.878 132.811 199.96 133.364 201.108C133.924 202.256 134.331 203.473 134.575 204.727C134.713 205.238 134.764 205.77 134.725 206.298V206.298Z" fill="#455A64"/>
<path d="M140.124 270.002C140.124 270.002 140.124 270.002 140.203 269.937L140.438 269.766L141.387 269.112L145.007 266.697L157.958 258.156L157.912 258.346L147.938 239.478C142.742 229.583 138.017 220.571 134.496 213.876V213.844C134.06 211.71 133.656 209.81 133.285 208.143C132.624 206.289 131.385 204.695 129.751 203.595C129.314 203.309 128.857 203.055 128.383 202.836L128.017 202.679C127.938 202.639 127.893 202.62 127.899 202.613C128.574 202.818 129.216 203.12 129.804 203.51C131.494 204.594 132.782 206.204 133.469 208.091V208.091L134.725 213.778V213.745L148.246 239.302L158.181 258.196L158.239 258.314L158.128 258.386L145.105 266.828L141.44 269.177L140.471 269.786L140.222 269.937L140.124 270.002Z" fill="#455A64"/>
<path d="M148.645 195.781C148.645 195.846 147.703 195.781 146.191 195.866C144.222 195.987 142.27 196.309 140.366 196.828C138.459 197.33 136.62 198.062 134.889 199.007C133.58 199.747 132.853 200.362 132.814 200.316C132.954 200.144 133.114 199.99 133.292 199.858C133.485 199.682 133.691 199.521 133.907 199.374C134.184 199.168 134.472 198.977 134.771 198.804C136.487 197.78 138.34 197.006 140.275 196.507C142.196 195.98 144.173 195.686 146.165 195.63C146.77 195.611 147.375 195.631 147.978 195.689C148.203 195.69 148.428 195.72 148.645 195.781V195.781Z" fill="#455A64"/>
<path d="M148.403 192.149C148.26 191.962 148.145 191.754 148.063 191.533L147.245 189.812C146.387 187.912 145.309 186.12 144.031 184.472C142.733 182.845 141.035 181.582 139.103 180.807C138.288 180.529 137.449 180.325 136.597 180.198C136.831 180.163 137.069 180.163 137.304 180.198C137.946 180.25 138.579 180.382 139.188 180.591C141.196 181.323 142.963 182.596 144.293 184.269C145.596 185.934 146.664 187.771 147.467 189.727C147.788 190.467 148.03 191.075 148.187 191.494C148.282 191.704 148.355 191.923 148.403 192.149V192.149Z" fill="#455A64"/>
<path d="M163.743 182.018C163.743 182.09 162.788 182.136 161.302 182.535C160.438 182.775 159.595 183.088 158.783 183.471C156.794 184.417 155.027 185.773 153.6 187.45C153.02 188.132 152.501 188.863 152.048 189.636C151.276 190.944 150.982 191.88 150.916 191.861C150.95 191.636 151.012 191.416 151.1 191.206C151.174 190.953 151.268 190.705 151.381 190.467C151.512 190.185 151.643 189.858 151.839 189.518C152.272 188.713 152.783 187.952 153.364 187.247C154.788 185.503 156.599 184.114 158.652 183.189C159.492 182.807 160.369 182.511 161.27 182.306C161.611 182.222 161.956 182.156 162.304 182.109C162.563 182.06 162.825 182.031 163.089 182.024C163.306 181.997 163.526 181.995 163.743 182.018Z" fill="#455A64"/>
<path d="M166.63 201.403C166.577 201.448 165.936 200.748 164.666 199.904C162.971 198.843 161.148 198.001 159.241 197.397C157.345 196.754 155.386 196.316 153.397 196.088L152.369 196.016H151.571C151.353 196.042 151.134 196.042 150.916 196.016C151.126 195.933 151.346 195.88 151.571 195.859C151.787 195.859 152.055 195.82 152.363 195.8H153.41C155.431 195.966 157.425 196.379 159.346 197.031C161.279 197.638 163.115 198.52 164.797 199.649C165.088 199.848 165.366 200.067 165.628 200.303C165.835 200.466 166.027 200.645 166.204 200.84C166.368 201.009 166.511 201.198 166.63 201.403V201.403Z" fill="#455A64"/>
<path d="M167.133 206.776C167.133 206.808 166.898 206.684 166.662 206.383C166.364 205.979 166.179 205.503 166.126 205.004C166.073 204.504 166.154 204 166.361 203.543C166.531 203.196 166.708 203.039 166.741 203.058C166.542 203.675 166.45 204.321 166.466 204.969C166.582 205.606 166.808 206.217 167.133 206.776Z" fill="#455A64"/>
<path d="M166.283 210.46C166.243 210.46 166.099 210.316 165.962 209.989C165.806 209.557 165.756 209.094 165.815 208.639C165.875 208.184 166.041 207.749 166.302 207.371C166.512 207.09 166.702 206.965 166.728 206.998C166.47 207.537 166.275 208.103 166.145 208.687C166.123 209.281 166.169 209.876 166.283 210.46V210.46Z" fill="#455A64"/>
<path d="M149.162 191.861C149.311 193.731 149.344 195.608 149.261 197.482C149.292 199.357 149.209 201.233 149.012 203.098C148.868 201.227 148.837 199.35 148.92 197.476C148.889 195.601 148.969 193.726 149.162 191.861V191.861Z" fill="#455A64"/>
<path d="M167.435 84.8122C166.623 85.2638 165.537 84.6748 165.17 83.824C164.876 82.9354 164.904 81.9716 165.249 81.1015C165.599 80.2423 165.843 79.3434 165.975 78.4248C166.011 77.5786 165.772 76.7435 165.295 76.044C164.817 75.3446 164.126 74.8184 163.325 74.5439C163.699 74.2165 164.003 73.8169 164.22 73.3692C164.436 72.9214 164.56 72.4346 164.584 71.9378C164.607 71.4411 164.531 70.9447 164.358 70.4782C164.186 70.0118 163.921 69.5849 163.58 69.2232C162.843 68.642 162.052 68.1336 161.217 67.7049C160.768 67.407 160.349 67.0649 159.967 66.6839C160.669 66.8613 161.401 66.8859 162.114 66.7559C162.686 66.6297 163.218 66.3606 163.658 65.9739C164.099 65.5871 164.434 65.0952 164.633 64.5439C164.82 63.9887 164.847 63.3926 164.713 62.8227C164.579 62.2527 164.288 61.7314 163.874 61.3174C163.444 60.9113 162.899 60.6475 162.314 60.562C161.728 60.4765 161.131 60.5735 160.602 60.8397C159.588 61.3763 159.025 62.4824 158.534 63.5229C158.377 63.8436 158.226 64.1774 158.076 64.485C156.643 62.5871 155.294 60.6303 153.082 59.9627C151.08 59.3541 148.927 60.0282 146.839 59.8777C145.321 59.7664 143.861 59.2232 142.343 59.053C140.825 58.8829 139.071 59.2101 138.213 60.447C137.683 61.1669 137.52 62.1093 136.99 62.8292C135.89 64.3148 133.527 64.5177 132.624 66.1015C131.891 67.4104 132.454 69.0661 132.14 70.5386C131.8 72.1355 130.484 73.3004 129.404 74.5243C128.325 75.7481 127.389 77.4366 127.991 78.9549C128.521 80.2638 130.079 81.0099 130.609 82.3515C130.975 83.3332 130.707 84.4261 130.687 85.4732C130.668 86.5203 131.093 87.7638 132.114 87.9994L143.73 91.0688C147.736 92.6983 151.865 94.341 156.165 94.341C160.465 94.341 165.092 92.2664 166.8 88.2939C166.169 88.2667 165.572 87.9999 165.131 87.5478C165.693 87.2909 166.192 86.9122 166.59 86.4391C166.989 85.966 167.277 85.4104 167.435 84.8122V84.8122Z" fill="#263238"/>
<path d="M157.906 88.4575C158.946 85.5358 159.729 82.5293 160.249 79.4719C160.765 76.4037 160.51 73.2554 159.509 70.3096C159.346 69.8711 157.952 66.9196 157.487 66.9654C157.153 66.9981 158.01 69.7533 157.84 70.0413C156.23 72.8096 155.792 76.1408 156.047 79.341C156.328 82.4434 156.952 85.5052 157.906 88.4706" fill="#263238"/>
<path d="M147.644 114.217C152.448 114.112 157.899 103.615 157.899 103.615L158.213 76.6316C158.469 68.8633 154.156 62.2337 146.381 62.201L145.661 62.2402C142.174 62.428 138.886 63.9211 136.45 66.4227C134.014 68.9243 132.608 72.2511 132.513 75.7415C132.33 82.4758 132.219 89.9235 132.454 93.5164C132.945 100.957 140.458 101.717 140.458 101.717C140.458 101.717 140.497 103.444 140.524 105.643C140.576 110.558 145.72 114.387 147.644 114.223V114.217Z" fill="#FFBE9D"/>
<path d="M140.458 101.717C143.897 101.525 147.209 100.351 150 98.3332C150 98.3332 147.925 103.876 140.458 103.569V101.717Z" fill="#EB996E"/>
<path d="M135.726 81.5858C135.74 81.8636 135.861 82.1252 136.063 82.3157C136.266 82.5061 136.535 82.6105 136.813 82.6067C136.949 82.6093 137.083 82.5849 137.21 82.5347C137.336 82.4846 137.451 82.4098 137.547 82.3147C137.644 82.2197 137.721 82.1062 137.774 81.9811C137.826 81.8559 137.853 81.7215 137.853 81.5858C137.843 81.3086 137.724 81.0467 137.522 80.8568C137.32 80.6668 137.051 80.5643 136.774 80.5714C136.638 80.5679 136.503 80.5915 136.376 80.6409C136.25 80.6902 136.135 80.7643 136.037 80.8587C135.939 80.9532 135.862 81.0661 135.808 81.191C135.755 81.3158 135.727 81.45 135.726 81.5858V81.5858Z" fill="#263238"/>
<path d="M134.293 78.7455C134.431 78.8829 135.203 78.2415 136.348 78.1826C137.493 78.1237 138.364 78.6538 138.482 78.5033C138.599 78.3528 138.39 78.1957 138.01 77.947C137.497 77.6311 136.898 77.4825 136.296 77.5217C135.696 77.5576 135.124 77.7873 134.666 78.1761C134.293 78.4575 134.202 78.6866 134.293 78.7455Z" fill="#263238"/>
<path d="M146.073 81.3109C146.084 81.5887 146.203 81.8513 146.404 82.0422C146.606 82.2332 146.875 82.3372 147.153 82.3319C147.289 82.3354 147.425 82.3115 147.552 82.2618C147.679 82.212 147.795 82.1374 147.892 82.0423C147.99 81.9471 148.067 81.8334 148.12 81.7078C148.173 81.5822 148.2 81.4472 148.2 81.3109C148.187 81.0349 148.067 80.7749 147.865 80.5857C147.664 80.3965 147.397 80.2928 147.12 80.2965C146.985 80.2921 146.849 80.3151 146.722 80.3641C146.595 80.4131 146.48 80.4872 146.382 80.5818C146.284 80.6764 146.207 80.7898 146.154 80.915C146.101 81.0403 146.073 81.1749 146.073 81.3109V81.3109Z" fill="#263238"/>
<path d="M145.504 78.608C145.648 78.7389 146.42 78.1041 147.566 78.0452C148.711 77.9863 149.581 78.5099 149.699 78.3659C149.817 78.2219 149.607 78.0583 149.228 77.8096C148.714 77.4937 148.115 77.345 147.513 77.3842C146.917 77.4109 146.346 77.6289 145.884 78.0059C145.543 78.2939 145.419 78.5491 145.504 78.608Z" fill="#263238"/>
<path d="M141.872 87.6198C141.258 87.4627 140.627 87.3836 139.993 87.3842C139.705 87.3842 139.424 87.3253 139.339 87.129C139.293 86.8288 139.343 86.5217 139.483 86.252C139.725 85.5321 139.967 84.7729 140.229 83.9811C141.263 80.7481 141.99 78.091 141.859 78.0517C141.728 78.0125 140.785 80.6041 139.758 83.8371C139.509 84.6311 139.274 85.3903 139.051 86.1146C138.888 86.4785 138.855 86.8878 138.959 87.2729C139.007 87.3737 139.077 87.4621 139.165 87.5313C139.252 87.6006 139.354 87.6487 139.463 87.6722C139.626 87.7113 139.794 87.7268 139.961 87.718C140.599 87.7674 141.242 87.7344 141.872 87.6198Z" fill="#263238"/>
<path d="M145.281 88.235C145.098 88.235 145.164 89.4785 144.143 90.4143C143.122 91.3502 141.8 91.2913 141.8 91.4614C141.8 91.6316 142.107 91.6905 142.664 91.6774C143.392 91.6449 144.086 91.3604 144.627 90.8724C145.146 90.4013 145.461 89.7462 145.504 89.0465C145.524 88.523 145.366 88.2219 145.281 88.235Z" fill="#263238"/>
<path d="M145.321 73.9614C145.452 74.269 146.584 74.0596 147.938 74.1512C149.293 74.2429 150.393 74.5439 150.556 74.2559C150.628 74.1185 150.425 73.8371 149.974 73.5622C149.375 73.2156 148.702 73.018 148.01 72.9863C147.318 72.9404 146.625 73.0592 145.988 73.3332C145.497 73.5622 145.262 73.8175 145.321 73.9614Z" fill="#263238"/>
<path d="M134.542 74.9169C134.758 75.1656 135.53 74.858 136.505 74.7926C137.48 74.7271 138.266 74.8711 138.436 74.5897C138.508 74.4523 138.37 74.2036 138.004 73.9745C137.517 73.7061 136.961 73.5878 136.407 73.6344C135.852 73.6809 135.324 73.8904 134.889 74.2363C134.542 74.5308 134.444 74.7991 134.542 74.9169Z" fill="#263238"/>
<path d="M157.899 82.1813C158.024 82.1159 162.939 80.3947 163.05 85.4928C163.161 90.591 158.017 89.6486 158.004 89.5046C157.991 89.3606 157.899 82.1813 157.899 82.1813Z" fill="#FFBE9D"/>
<path d="M159.516 87.5413C159.516 87.5413 159.607 87.6002 159.758 87.6656C159.968 87.7487 160.202 87.7487 160.412 87.6656C160.949 87.4562 161.381 86.5923 161.387 85.7023C161.389 85.2662 161.295 84.8351 161.113 84.4392C161.058 84.2834 160.967 84.1428 160.848 84.0291C160.728 83.9153 160.584 83.8315 160.425 83.7847C160.323 83.7616 160.216 83.7743 160.122 83.8208C160.028 83.8673 159.952 83.9446 159.908 84.04C159.843 84.1839 159.876 84.2886 159.849 84.2952C159.823 84.3017 159.738 84.2167 159.777 84.0007C159.802 83.8752 159.869 83.7619 159.967 83.68C160.035 83.6243 160.114 83.5828 160.198 83.5581C160.282 83.5333 160.371 83.5258 160.458 83.536C160.668 83.5737 160.865 83.6644 161.03 83.7996C161.195 83.9347 161.322 84.1099 161.4 84.3083C161.634 84.7204 161.764 85.183 161.78 85.6564C161.78 86.6839 161.263 87.6591 160.53 87.8881C160.395 87.9319 160.251 87.944 160.111 87.9236C159.97 87.9032 159.836 87.8507 159.719 87.7703C159.529 87.6656 159.503 87.5478 159.516 87.5413Z" fill="#EB996E"/>
<path d="M135.707 67.2468C134.876 66.8018 137.317 64.0989 139.332 63.1499C142.382 61.7232 147.055 60.807 149.895 61.5727C153.311 62.4955 156.158 64.1512 157.906 67.2271C159.594 70.3602 160.416 73.8866 160.288 77.4431C160.353 78.5235 160.127 79.6015 159.633 80.5648C158.933 81.7036 157.572 82.43 157.67 83.9876C157.692 84.2691 157.659 84.5523 157.571 84.8207C157.484 85.0892 157.344 85.3376 157.16 85.5517C156.237 86.5531 155.085 85.6368 154.542 84.7075C153.397 82.7442 153.233 80.3423 153.109 78.0518C152.93 76.4297 153.018 74.7892 153.37 73.1957C153.606 72.345 154.025 71.5334 154.188 70.6696C154.313 70.2434 154.343 69.795 154.275 69.3561C154.207 68.9173 154.044 68.4987 153.796 68.1303C153.671 67.9784 153.531 67.8402 153.377 67.718C152.658 67.106 151.79 66.6961 150.861 66.5305C149.931 66.3649 148.975 66.4495 148.089 66.7756C145.229 67.8292 140.34 69.3934 139.044 68.451C137.186 67.0766 136.734 66.1669 136.734 66.1669L135.707 67.2468Z" fill="#263238"/>
<path d="M149.614 60.879C148.212 60.4029 146.729 60.2098 145.252 60.3109C143.774 60.412 142.332 60.8053 141.008 61.468C140.297 61.8043 139.662 62.2808 139.14 62.8691C138.618 63.4573 138.22 64.1449 137.971 64.8907C137.565 66.4091 138.233 68.2612 139.699 68.8174L139.797 68.8829C141.983 69.5831 143.397 69.2755 145.556 68.4968C147.376 67.8423 148.979 66.6905 150.792 66.0491C152.74 65.3573 154.852 65.2684 156.852 65.7939C154.914 63.5471 152.417 61.8517 149.614 60.879Z" fill="#263238"/>
<path d="M159.319 65.9248C159.274 65.9641 158.861 65.4732 158.01 64.9038C157.528 64.5663 157.008 64.2873 156.459 64.0727C155.802 63.804 155.094 63.6855 154.385 63.7258C153.086 63.871 151.855 64.3791 150.831 65.1918C150.039 65.8463 149.673 66.3436 149.627 66.3044C149.581 66.2651 149.679 66.1473 149.849 65.9117C150.09 65.5809 150.366 65.2779 150.674 65.0086C151.713 64.0997 153.011 63.539 154.385 63.4052C155.145 63.3596 155.905 63.4941 156.603 63.7978C157.167 64.0323 157.698 64.3404 158.181 64.7141C158.642 65.0318 159.031 65.4446 159.319 65.9248Z" fill="#455A64"/>
<path d="M159.817 67.7311C159.779 68.2371 159.648 68.7319 159.431 69.1905C158.517 71.4767 156.835 73.3724 154.673 74.5504C154.242 74.8184 153.768 75.0089 153.272 75.1133C156.329 73.5947 158.676 70.9476 159.817 67.7311V67.7311Z" fill="#455A64"/>
<path d="M161.904 68.5622C161.934 68.7531 161.934 68.9473 161.904 69.1381C161.873 69.6668 161.798 70.1921 161.682 70.7088C161.291 72.4252 160.48 74.018 159.324 75.345C158.167 76.672 156.699 77.6919 155.052 78.3135C154.557 78.4995 154.047 78.644 153.527 78.7455C153.34 78.7958 153.145 78.8157 152.952 78.8044C152.952 78.7455 153.75 78.6015 154.961 78.0845C156.537 77.422 157.941 76.4076 159.065 75.119C160.189 73.8304 161.004 72.3017 161.446 70.6499C161.813 69.3803 161.839 68.5557 161.904 68.5622Z" fill="#455A64"/>
<path d="M143.776 60.4143C143.335 60.6105 142.883 60.7809 142.422 60.9248C141.355 61.3549 140.36 61.944 139.47 62.6722C138.583 63.4044 137.814 64.2699 137.193 65.2376C136.708 65.9837 136.486 66.4876 136.433 66.468C136.528 65.9853 136.715 65.5253 136.983 65.1133C137.566 64.0796 138.336 63.1631 139.254 62.4104C140.168 61.6528 141.216 61.0734 142.343 60.7023C142.799 60.5204 143.285 60.4229 143.776 60.4143V60.4143Z" fill="#455A64"/>
<path d="M163.501 61.0557C163.389 62.1206 162.929 63.1189 162.192 63.896C161.55 64.7484 160.647 65.3686 159.62 65.663C160.459 65.0914 161.236 64.4334 161.937 63.6996C162.554 62.8784 163.079 61.9918 163.501 61.0557V61.0557Z" fill="#455A64"/>
<path d="M107.461 135.297L100.55 149.138C99.7812 150.682 99.4207 152.396 99.5026 154.118V154.118C99.6286 156.702 100.743 159.137 102.616 160.921C104.489 162.704 106.975 163.699 109.562 163.7L129.293 162.554L130.157 153.549L115.144 149.93L120.831 139.171L107.461 135.297Z" fill="#FFBE9D"/>
<path d="M126.296 153.516H130.157C130.157 153.516 138.874 150.369 140.668 150.67C142.284 150.938 148.194 154.865 149.352 155.643C149.48 155.732 149.578 155.858 149.634 156.003V156.003C149.746 156.311 149.736 156.65 149.604 156.95C149.472 157.25 149.23 157.488 148.927 157.613L148.802 157.659L148.855 157.836C148.925 158.065 148.956 158.304 148.946 158.543C148.933 158.724 148.862 158.896 148.744 159.034C148.626 159.172 148.467 159.269 148.29 159.31C148.113 159.351 147.927 159.334 147.76 159.262C147.593 159.19 147.454 159.066 147.363 158.909L147.585 159.308C147.675 159.47 147.718 159.654 147.709 159.838V160.198C147.699 160.391 147.631 160.576 147.514 160.73C147.398 160.884 147.238 161 147.055 161.062V161.062C146.879 161.121 146.689 161.128 146.509 161.082C146.329 161.035 146.166 160.937 146.041 160.8C145.288 159.976 143.672 158.32 142.572 158.137C141.386 157.996 140.192 157.937 138.999 157.96C138.755 157.959 138.516 158.032 138.315 158.17C138.114 158.308 137.96 158.504 137.873 158.732V158.732C138.528 158.778 143.05 161.141 144.653 162.005C144.904 162.129 145.12 162.314 145.283 162.542C145.445 162.771 145.548 163.036 145.583 163.314C145.641 163.811 145.393 164.341 144.398 164.105C142.359 163.498 140.366 162.743 138.436 161.848C138.436 161.848 136.473 161.285 135.164 162.188C133.364 163.458 132.546 163.922 130.988 163.412C130.05 163.096 129.15 162.677 128.305 162.162L125.255 161.861C125.255 161.861 122.356 154.622 126.296 153.516Z" fill="#FFBE9D"/>
<path d="M137.808 154.989C138.349 154.885 138.895 154.809 139.444 154.76C140.773 154.672 142.103 154.899 143.328 155.422C144.553 155.945 145.637 156.75 146.492 157.77C147.147 158.549 147.428 159.125 147.461 159.112C147.408 158.971 147.342 158.835 147.264 158.706C147.076 158.352 146.857 158.015 146.61 157.698C145.766 156.638 144.672 155.804 143.425 155.272C142.179 154.739 140.82 154.525 139.47 154.649C139.063 154.68 138.66 154.747 138.266 154.851C138.108 154.878 137.954 154.925 137.808 154.989V154.989Z" fill="#EB996E"/>
<path d="M138.73 152.875C139.283 152.703 139.854 152.602 140.432 152.574C141.834 152.567 143.209 152.957 144.398 153.7C145.576 154.457 146.65 155.366 147.592 156.403L148.469 157.332C148.567 157.453 148.679 157.563 148.802 157.659C148.717 157.527 148.621 157.402 148.514 157.286C148.325 157.057 148.043 156.723 147.677 156.324C146.752 155.252 145.676 154.319 144.483 153.556C143.268 152.799 141.857 152.417 140.425 152.456C139.996 152.479 139.571 152.558 139.162 152.692C139.018 152.731 138.914 152.79 138.835 152.816C138.757 152.842 138.724 152.869 138.73 152.875Z" fill="#EB996E"/>
<path d="M115.144 149.897C115.144 149.956 114.457 149.845 113.37 149.851C111.953 149.882 110.549 150.131 109.208 150.591C107.863 151.03 106.601 151.694 105.478 152.554C104.627 153.209 104.221 153.778 104.169 153.745C104.116 153.713 104.241 153.582 104.418 153.327C104.684 152.977 104.987 152.657 105.321 152.371C106.428 151.426 107.708 150.706 109.09 150.251C110.463 149.775 111.911 149.553 113.364 149.596C113.803 149.612 114.241 149.663 114.673 149.747C114.837 149.773 114.995 149.823 115.144 149.897V149.897Z" fill="#EB996E"/>
<path d="M191.734 132.914C191.734 132.914 196.047 145.349 200.7 156.861C200.791 157.095 200.865 157.336 200.923 157.581C201.07 158.318 201.051 159.078 200.866 159.807C200.682 160.536 200.338 161.214 199.858 161.793C199.378 162.372 198.776 162.836 198.094 163.152C197.412 163.469 196.668 163.629 195.916 163.621H168.73V154.871L185.471 151.317L179.411 137.862L191.734 132.914Z" fill="#FFBE9D"/>
<path d="M174.391 153.791H170.53C170.53 153.791 161.813 150.643 160.02 150.944C158.403 151.213 152.493 155.139 151.335 155.918C151.205 156.002 151.107 156.126 151.054 156.272C150.941 156.579 150.952 156.919 151.083 157.219C151.215 157.519 151.458 157.756 151.76 157.882L151.885 157.934L151.826 158.111C151.758 158.34 151.729 158.579 151.741 158.817C151.754 158.999 151.825 159.171 151.943 159.309C152.061 159.447 152.221 159.544 152.398 159.585C152.575 159.626 152.76 159.609 152.927 159.537C153.094 159.465 153.233 159.341 153.325 159.184L153.102 159.577C153.01 159.737 152.967 159.922 152.978 160.107V160.467C152.987 160.661 153.054 160.847 153.171 161.003C153.288 161.158 153.448 161.274 153.632 161.337V161.337C153.809 161.395 153.999 161.4 154.179 161.352C154.359 161.305 154.521 161.206 154.647 161.069C155.399 160.244 157.016 158.595 158.109 158.412C159.296 158.268 160.493 158.209 161.688 158.235C161.932 158.236 162.17 158.31 162.371 158.447C162.571 158.585 162.726 158.78 162.814 159.007V159.007C162.16 159.053 157.637 161.416 156.034 162.279C155.783 162.404 155.566 162.589 155.403 162.817C155.24 163.046 155.135 163.31 155.098 163.588C155.039 164.092 155.295 164.616 156.289 164.387C158.329 163.779 160.321 163.025 162.251 162.129C162.251 162.129 164.215 161.56 165.524 162.463C167.33 163.739 168.141 164.204 169.699 163.687C170.64 163.376 171.542 162.959 172.389 162.443L175.438 162.136C175.438 162.136 178.331 154.897 174.391 153.791Z" fill="#FFBE9D"/>
<path d="M162.88 155.264C162.338 155.16 161.792 155.084 161.243 155.035C159.914 154.945 158.583 155.172 157.358 155.695C156.133 156.218 155.049 157.023 154.195 158.045C153.541 158.824 153.259 159.4 153.226 159.354C153.277 159.214 153.342 159.08 153.423 158.955C153.612 158.599 153.831 158.26 154.077 157.941C154.926 156.884 156.022 156.052 157.268 155.52C158.515 154.988 159.874 154.772 161.224 154.891C161.63 154.927 162.033 154.997 162.428 155.1C162.586 155.133 162.738 155.188 162.88 155.264Z" fill="#EB996E"/>
<path d="M161.957 153.143C161.401 152.977 160.828 152.878 160.249 152.849C158.85 152.843 157.478 153.231 156.289 153.968C155.109 154.725 154.033 155.634 153.089 156.671L152.219 157.607C152.115 157.723 152.004 157.833 151.885 157.934C151.966 157.8 152.06 157.675 152.166 157.561C152.363 157.332 152.644 156.998 153.004 156.592C153.932 155.522 155.01 154.592 156.204 153.831C157.416 153.072 158.826 152.689 160.255 152.731C160.687 152.75 161.115 152.83 161.525 152.967C161.635 152.999 161.742 153.04 161.845 153.091L161.957 153.143Z" fill="#EB996E"/>
<path d="M196.119 153.889C196.086 153.935 195.556 153.516 194.627 152.986C192.195 151.583 189.396 150.949 186.597 151.167C185.523 151.245 184.869 151.396 184.856 151.337C184.994 151.257 185.144 151.202 185.301 151.173C185.718 151.06 186.142 150.977 186.571 150.925C189.43 150.567 192.325 151.222 194.751 152.777C195.117 153.008 195.465 153.266 195.792 153.549C196.014 153.752 196.139 153.87 196.119 153.889Z" fill="#EB996E"/>
<path d="M265.34 163.961H34.4634V168.366H265.34V163.961Z" fill="#455A64"/>
<path d="M43.8417 287.417H40.6807V168.071H47.4411L43.8417 287.417Z" fill="#455A64"/>
<path d="M84.5026 287.358H81.3481V168.156H88.1086L84.5026 287.358Z" fill="#263238"/>
<path d="M216.976 287.227H213.815V168.17H220.576L216.976 287.227Z" fill="#263238"/>
<path d="M251.014 287.358H247.853V168.117H254.614L251.014 287.358Z" fill="#455A64"/>
<path d="M168.901 163.916H128.357C127.803 163.915 127.271 163.701 126.87 163.318C126.47 162.936 126.231 162.414 126.204 161.861L124.987 133.948C124.975 133.658 125.021 133.368 125.124 133.096C125.226 132.824 125.383 132.576 125.584 132.366C125.785 132.157 126.027 131.99 126.294 131.876C126.562 131.762 126.849 131.703 127.14 131.704H170.039C170.329 131.704 170.616 131.763 170.882 131.877C171.149 131.991 171.39 132.157 171.591 132.366C171.792 132.575 171.948 132.822 172.052 133.093C172.155 133.363 172.203 133.652 172.192 133.942L171.054 161.854C171.032 162.41 170.795 162.935 170.393 163.32C169.992 163.704 169.457 163.918 168.901 163.916V163.916Z" fill="#E0E0E0"/>
<path d="M150.805 148.3C150.805 148.739 150.675 149.168 150.431 149.533C150.187 149.898 149.841 150.182 149.435 150.35C149.03 150.518 148.584 150.562 148.154 150.476C147.723 150.391 147.328 150.179 147.018 149.869C146.707 149.559 146.496 149.164 146.41 148.733C146.325 148.303 146.369 147.857 146.537 147.451C146.705 147.046 146.989 146.7 147.354 146.456C147.719 146.212 148.148 146.082 148.586 146.082C149.174 146.084 149.738 146.318 150.153 146.734C150.569 147.149 150.803 147.713 150.805 148.3V148.3Z" fill="white"/>
<path d="M245.726 114.59C245.754 114.367 245.826 114.151 245.938 113.956C246.05 113.762 246.2 113.591 246.379 113.455C246.559 113.32 246.763 113.221 246.981 113.166C247.199 113.11 247.426 113.099 247.648 113.133C247.87 113.166 248.083 113.244 248.275 113.362C248.467 113.479 248.633 113.634 248.764 113.817C248.894 114 248.987 114.207 249.037 114.426C249.086 114.645 249.091 114.872 249.051 115.094L241.682 160.087H238.312L245.726 114.59Z" fill="#263238"/>
<path d="M248.357 115.146L217.965 81.769L217.742 82.1355L216.27 84.5766L245.864 117.417C246.164 117.744 246.582 117.94 247.026 117.96C247.469 117.981 247.903 117.825 248.233 117.527C248.562 117.229 248.76 116.812 248.783 116.369C248.807 115.925 248.654 115.49 248.357 115.159V115.146Z" fill="#263238"/>
<path d="M246.126 116.01C246.126 116.01 246.073 115.938 246.086 115.8C246.106 115.599 246.205 115.413 246.361 115.283C246.481 115.18 246.625 115.11 246.78 115.081C246.935 115.051 247.095 115.062 247.245 115.113C247.432 115.176 247.594 115.296 247.71 115.456C247.825 115.617 247.887 115.809 247.887 116.007C247.887 116.204 247.825 116.396 247.71 116.557C247.594 116.717 247.432 116.837 247.245 116.9C247.096 116.95 246.936 116.962 246.782 116.933C246.627 116.904 246.482 116.837 246.361 116.736C246.205 116.607 246.106 116.421 246.086 116.219C246.086 116.082 246.086 116.01 246.126 116.01C246.165 116.01 246.178 116.317 246.512 116.547C246.602 116.607 246.707 116.645 246.815 116.655C246.924 116.665 247.033 116.648 247.133 116.605C247.252 116.557 247.354 116.474 247.426 116.369C247.498 116.263 247.537 116.138 247.539 116.01C247.539 115.881 247.5 115.755 247.427 115.647C247.355 115.54 247.253 115.457 247.133 115.408C247.033 115.366 246.923 115.35 246.814 115.361C246.706 115.373 246.602 115.411 246.512 115.473C246.204 115.696 246.204 116.023 246.126 116.01Z" fill="#455A64"/>
<path d="M246.584 113.202C246.928 113.436 247.236 113.719 247.5 114.04C247.823 114.359 248.129 114.696 248.416 115.048C248.608 115.274 248.75 115.539 248.833 115.824C248.915 116.11 248.936 116.41 248.894 116.704C248.817 116.999 248.661 117.268 248.443 117.483C248.225 117.697 247.954 117.848 247.657 117.921C247.422 117.983 247.178 117.998 246.937 117.964C246.697 117.93 246.465 117.849 246.257 117.725C245.877 117.528 245.565 117.223 245.36 116.848C245.399 116.795 245.72 117.175 246.374 117.502C246.742 117.693 247.169 117.733 247.565 117.613C247.803 117.55 248.02 117.425 248.195 117.252C248.369 117.079 248.495 116.862 248.56 116.625C248.59 116.377 248.57 116.125 248.502 115.885C248.433 115.644 248.317 115.42 248.161 115.225C247.88 114.832 247.559 114.492 247.323 114.197C247.032 113.901 246.784 113.566 246.584 113.202V113.202Z" fill="#455A64"/>
<path d="M224.974 164.06H252.644C252.644 164.06 249.11 159.655 239.902 159.655C231.322 159.655 226.211 162.175 224.974 164.06Z" fill="#263238"/>
<path d="M218.141 76.468L219.548 74.3541L217.808 73.019L216.315 75.146L218.141 76.468Z" fill="#263238"/>
<path d="M220.524 77.7376L214.463 73.3463L208.652 80.3424C198.567 81.9654 194.503 88.307 194.503 88.307L212.552 102.129C218.73 95.3031 215.825 85.5452 215.825 85.5452L220.524 77.7376Z" fill="#1DB954"/>
<path d="M215.805 85.5452C214.518 84.8197 213.289 83.9971 212.127 83.0845C210.902 82.2583 209.74 81.3417 208.652 80.3423C209.939 81.0679 211.168 81.8905 212.33 82.8031C213.558 83.6247 214.72 84.5416 215.805 85.5452V85.5452Z" fill="#263238"/>
<path d="M193.73 93.1172C193.77 93.2023 190.681 94.7206 186.832 96.5073C182.984 98.2939 179.83 99.6683 179.791 99.5832C179.751 99.4981 182.84 97.9798 186.688 96.1931C190.537 94.4065 193.691 93.0321 193.73 93.1172Z" fill="#263238"/>
<path d="M200.694 99.1382C200.766 99.2036 198.383 101.756 195.386 104.838C192.389 107.921 189.895 110.369 189.83 110.303C189.764 110.238 192.14 107.685 195.137 104.603C198.135 101.52 200.628 99.0727 200.694 99.1382Z" fill="#263238"/>
<path d="M205.288 117.201C205.196 117.201 205.386 114.099 205.72 110.29C206.054 106.481 206.374 103.399 206.492 103.412C206.465 105.721 206.321 108.028 206.06 110.323C205.726 114.132 205.38 117.208 205.288 117.201Z" fill="#263238"/>
<path d="M300 287.358C300 287.456 232.84 287.528 150.007 287.528C67.1728 287.528 0 287.456 0 287.358C0 287.26 67.1466 287.188 150.007 287.188C232.866 287.188 300 287.266 300 287.358Z" fill="#263238"/>
<path d="M101.28 19.8868L83.7094 20.4052L84.1237 34.4501L101.695 33.9317L101.28 19.8868Z" fill="#EBEBEB"/>
<path d="M101.283 19.8842H100.949L99.9935 19.9235L96.4006 20.0413L83.7108 20.4339L83.7566 20.3881C83.881 24.5701 84.025 29.3607 84.182 34.4326L84.1297 34.3868L101.695 33.8764L101.656 33.9222C101.538 29.6879 101.44 26.18 101.374 23.7324C101.374 22.502 101.322 21.54 101.302 20.8855V20.1329V19.8711C101.302 19.8711 101.302 19.9562 101.302 20.1264C101.302 20.2965 101.302 20.5452 101.302 20.8659C101.302 21.5203 101.355 22.4824 101.394 23.7062C101.473 26.1604 101.584 29.6748 101.721 33.9156V33.9549H101.675L84.11 34.4785H84.0577V34.4261C83.9072 29.3541 83.7697 24.557 83.6454 20.3816V20.3358H83.6912L96.4072 19.9889L99.9935 19.8908H100.943H101.263L101.283 19.8842Z" fill="#263238"/>
<path d="M100.679 20.7949L84.3441 21.2769L84.7064 33.5556L101.041 33.0736L100.679 20.7949Z" fill="#1DB954"/>
<g opacity="0.3">
<path opacity="0.3" d="M84.7056 33.5491L90.1899 25.7481L93.8613 30.4209L96.1846 27.7965L101.041 33.0648L84.7056 33.5491Z" fill="black"/>
</g>
<g opacity="0.3">
<path opacity="0.3" d="M95.1964 24.6617C95.1968 24.9989 95.067 25.3232 94.8341 25.567C94.6012 25.8109 94.2833 25.9554 93.9464 25.9706C93.6854 25.9824 93.4267 25.9157 93.2039 25.7792C92.981 25.6427 92.8041 25.4427 92.696 25.2048C92.5878 24.9669 92.5534 24.702 92.597 24.4444C92.6407 24.1867 92.7604 23.948 92.9409 23.759C93.1214 23.57 93.3543 23.4394 93.6097 23.3839C93.8651 23.3285 94.1312 23.3507 94.3738 23.4478C94.6165 23.5449 94.8245 23.7124 94.9711 23.9288C95.1177 24.1451 95.1961 24.4004 95.1964 24.6617V24.6617Z" fill="black"/>
</g>
<path d="M93.3287 29.2346L67.1689 33.8143L70.83 54.7266L96.9897 50.1469L93.3287 29.2346Z" fill="#EBEBEB"/>
<path d="M93.3312 29.2298H93.2068L92.8404 29.2952L91.4202 29.5505L86.0668 30.506L67.1794 33.8502L67.2383 33.7717C68.3312 39.9955 69.5812 47.129 70.9097 54.6813L70.8181 54.6159L96.9961 50.0347L96.9438 50.1067C95.8574 43.8044 94.9804 38.5884 94.326 34.93C94.0118 33.1041 93.7697 31.6578 93.5995 30.6892C93.5144 30.2049 93.4555 29.8253 93.4097 29.5701L93.3508 29.184C93.3508 29.184 93.3508 29.3083 93.4228 29.557C93.4948 29.8057 93.5341 30.2114 93.6257 30.663C93.7959 31.6381 94.0511 33.0648 94.3783 34.8842L97.0747 50.0871V50.146H97.0092L70.8312 54.7272H70.7592V54.6552C69.4503 47.1028 68.1872 39.9693 67.1008 33.7455V33.6735H67.1728L86.1126 30.4012L91.4529 29.485L92.8665 29.2429L93.2265 29.184L93.3312 29.2298Z" fill="#263238"/>
<path d="M92.6188 30.7197L68.2963 34.9778L71.4969 53.26L95.8194 49.0019L92.6188 30.7197Z" fill="#1DB954"/>
<g opacity="0.4">
<path opacity="0.4" d="M71.5054 53.2481L78.0106 40.3947L84.5158 46.5858L87.4216 42.1617L95.8247 48.9876L71.5054 53.2481Z" fill="black"/>
</g>
<g opacity="0.4">
<path opacity="0.4" d="M85.2619 37.6918C85.3333 38.0752 85.289 38.4711 85.1345 38.8292C84.98 39.1873 84.7224 39.4912 84.3945 39.7023C84.0666 39.9134 83.6832 40.0221 83.2933 40.0144C82.9034 40.0068 82.5246 39.8832 82.2052 39.6595C81.8858 39.4357 81.6403 39.1219 81.5 38.758C81.3596 38.3942 81.3308 37.9968 81.4172 37.6165C81.5036 37.2362 81.7013 36.8903 81.9851 36.6228C82.2688 36.3553 82.6258 36.1784 83.0106 36.1146C83.5176 36.0305 84.0374 36.1486 84.4583 36.4435C84.8792 36.7384 85.1677 37.1865 85.2619 37.6918V37.6918Z" fill="black"/>
</g>
<path d="M39.11 66.612L43.1938 82.273C43.2622 82.5424 43.4313 82.7753 43.6663 82.9238C43.9012 83.0723 44.1842 83.1252 44.4569 83.0714L72.9975 77.4824C73.1376 77.455 73.271 77.4002 73.3899 77.3212C73.5089 77.2422 73.6111 77.1405 73.6907 77.022C73.7703 76.9035 73.8258 76.7704 73.854 76.6305C73.8821 76.4905 73.8824 76.3463 73.8548 76.2062L71.4661 63.8567C71.4373 63.7141 71.3804 63.5785 71.2988 63.458C71.2172 63.3374 71.1125 63.2343 70.9908 63.1546C70.869 63.0748 70.7326 63.02 70.5895 62.9934C70.4464 62.9668 70.2995 62.9688 70.1572 62.9994L52.631 66.5465C52.3483 66.6042 52.0542 66.5477 51.8129 66.3894L48.1742 63.9811C47.9348 63.8242 47.6441 63.7656 47.3627 63.8175L39.9608 65.2703C39.8144 65.2978 39.6752 65.3552 39.5518 65.4388C39.4285 65.5224 39.3237 65.6304 39.2439 65.7563C39.1641 65.8821 39.111 66.023 39.088 66.1702C39.065 66.3174 39.0725 66.4678 39.11 66.612V66.612Z" fill="#1DB954"/>
<path d="M70.8684 60.9056L39.6871 67.0118L43.3358 85.6435L74.5171 79.5373L70.8684 60.9056Z" fill="#F5F5F5"/>
<path d="M37.5262 69.1774L43.7108 88.1565C43.7661 88.3185 43.8778 88.4553 44.0256 88.5418C44.1734 88.6284 44.3474 88.6588 44.5158 88.6277L74.9019 82.6787C75.0761 82.6452 75.231 82.5468 75.3355 82.4035C75.44 82.2602 75.4861 82.0825 75.4647 81.9065L73.1938 62.1748C73.1829 62.0786 73.1523 61.9857 73.1037 61.9019C73.0551 61.8182 72.9897 61.7454 72.9116 61.6882C72.8335 61.631 72.7444 61.5907 72.6499 61.5696C72.5554 61.5486 72.4576 61.5474 72.3626 61.5661L38.0891 68.2677C37.9888 68.2837 37.8932 68.3211 37.8088 68.3774C37.7243 68.4337 37.6529 68.5075 37.5995 68.5938C37.5461 68.6801 37.5119 68.7769 37.4993 68.8776C37.4866 68.9783 37.4958 69.0806 37.5262 69.1774V69.1774Z" fill="#1DB954"/>
<g opacity="0.3">
<path opacity="0.3" d="M37.5262 69.1774L43.7108 88.1565C43.7661 88.3185 43.8778 88.4553 44.0256 88.5418C44.1734 88.6284 44.3474 88.6588 44.5158 88.6277L74.9019 82.6787C75.0761 82.6452 75.231 82.5468 75.3355 82.4035C75.44 82.2602 75.4861 82.0825 75.4647 81.9065L73.1938 62.1748C73.1829 62.0786 73.1523 61.9857 73.1037 61.9019C73.0551 61.8182 72.9897 61.7454 72.9116 61.6882C72.8335 61.631 72.7444 61.5907 72.6499 61.5696C72.5554 61.5486 72.4576 61.5474 72.3626 61.5661L38.0891 68.2677C37.9888 68.2837 37.8932 68.3211 37.8088 68.3774C37.7243 68.4337 37.6529 68.5075 37.5995 68.5938C37.5461 68.6801 37.5119 68.7769 37.4993 68.8776C37.4866 68.9783 37.4958 69.0806 37.5262 69.1774V69.1774Z" fill="black"/>
</g>
<path d="M49.7645 51.8148L29.3915 44.3606C29.0415 44.189 28.7701 43.8903 28.6327 43.5255C28.4953 43.1607 28.5022 42.7572 28.652 42.3973L33.7109 29.1643C33.8261 28.7998 34.0752 28.4926 34.4079 28.3044C34.7406 28.1161 35.1323 28.0609 35.5041 28.1499L55.9033 35.7873C56.6166 36.0557 56.6952 36.8214 56.4268 37.5347L51.1258 51.1931C51.0777 51.3237 51.0043 51.4434 50.9097 51.5455C50.8151 51.6475 50.7013 51.7298 50.5747 51.7876C50.4482 51.8454 50.3114 51.8776 50.1723 51.8822C50.0333 51.8869 49.8947 51.864 49.7645 51.8148V51.8148Z" fill="#FAFAFA"/>
<path d="M49.5616 51.7363C49.8231 51.8063 50.0984 51.8063 50.36 51.7363C50.6726 51.6428 50.9446 51.4469 51.1322 51.18C51.2417 51.0044 51.3275 50.8152 51.3875 50.6172C51.4726 50.4078 51.5511 50.1787 51.6427 49.9627C52.3692 48.0387 53.4097 45.2834 54.6859 41.8803C55.0131 41.023 55.3404 40.1329 55.7003 39.2036L56.2435 37.7769C56.3437 37.5439 56.4247 37.3031 56.4856 37.057C56.5203 36.8147 56.4863 36.5676 56.3875 36.3436C56.2874 36.1143 56.1181 35.9221 55.9032 35.7939C55.6612 35.6795 55.412 35.5811 55.1571 35.4994L53.5733 34.9235L50.2618 33.7127L35.5301 28.3266C35.2333 28.2306 34.9119 28.2438 34.624 28.3638C34.336 28.4838 34.1003 28.7027 33.9595 28.9811L33.2265 30.879L31.7932 34.6224C30.8901 37.0897 29.9477 39.4523 29.0838 41.7036C28.9726 41.985 28.8678 42.2664 28.7631 42.5413C28.6496 42.7912 28.6176 43.0705 28.6715 43.3397C28.728 43.5947 28.8658 43.8244 29.0642 43.9942C29.2827 44.1593 29.5318 44.2795 29.7972 44.3476L32.9123 45.4994L38.5079 47.5609L46.5969 50.5976L48.7959 51.4287L49.3587 51.6512C49.4266 51.6735 49.4923 51.702 49.555 51.7363C49.4849 51.7265 49.4166 51.7067 49.3521 51.6774L48.7762 51.4811L46.5969 50.6957L38.4752 47.7703L32.8534 45.735L29.7317 44.6028C29.4399 44.5235 29.1664 44.3879 28.9267 44.2036C28.6855 43.9943 28.5199 43.7114 28.4555 43.3986C28.3857 43.086 28.4131 42.7594 28.5341 42.4628C28.6388 42.1813 28.7435 41.8999 28.8548 41.6185L31.5445 34.5439C32.0092 33.3201 32.487 32.0701 32.9713 30.807C33.2134 30.1525 33.4621 29.4981 33.7108 28.8895C33.8692 28.5385 34.153 28.2595 34.5065 28.1069C34.86 27.9544 35.2578 27.9394 35.6218 28.0648L50.3469 33.4641L53.6192 34.6813L55.2029 35.2638C55.4719 35.3521 55.7344 35.4592 55.9883 35.5845C56.2408 35.7389 56.4396 35.9674 56.5576 36.2389C56.6721 36.5046 56.7106 36.7969 56.6689 37.0832C56.6056 37.343 56.5202 37.597 56.4137 37.8423C56.2239 38.3266 56.0406 38.7978 55.8639 39.2625C55.504 40.1918 55.1637 41.0819 54.8299 41.9326L51.7082 49.9824C51.6165 50.2245 51.5249 50.447 51.4464 50.6368C51.3779 50.8402 51.2833 51.0338 51.165 51.2128C50.961 51.4876 50.6706 51.6858 50.3404 51.7756C50.138 51.8228 49.9275 51.8228 49.7252 51.7756C49.669 51.7706 49.6139 51.7573 49.5616 51.7363V51.7363Z" fill="#1DB954"/>
<path d="M43.9268 38.9025L46.0472 41.5596L42.6572 42.1748L39.2737 42.79L40.5368 39.5177L41.7999 36.2455L43.9268 38.9025Z" fill="#1DB954"/>
<path d="M81.7474 83.3004H35C32.5458 83.3004 30.5563 85.29 30.5563 87.7442V134.492C30.5563 136.946 32.5458 138.935 35 138.935H81.7474C84.2016 138.935 86.1911 136.946 86.1911 134.492V87.7442C86.1911 85.29 84.2016 83.3004 81.7474 83.3004Z" fill="#1DB954"/>
<path d="M68.7827 122.862C70.3154 122.437 71.6163 121.42 72.3993 120.036C73.1824 118.651 73.3834 117.012 72.9581 115.48C72.5329 113.947 71.5162 112.646 70.1318 111.863C68.7474 111.08 67.1086 110.879 65.5759 111.304C66.0537 106.664 61.8325 102.103 57.1662 102.227C52.5 102.352 48.521 107.129 49.2539 111.743C47.7985 111.691 46.3821 112.219 45.3161 113.211C44.2502 114.204 43.6221 115.579 43.57 117.034C43.518 118.489 44.0462 119.906 45.0385 120.972C46.0308 122.038 47.4059 122.666 48.8613 122.718L68.7827 122.862Z" fill="white"/>
</svg>
